<?xml version="1.0" encoding="UTF-8" standalone="no"?>
<!-- Created with Inkscape (http://www.inkscape.org/) -->

<svg
   version="1.1"
   id="svg934"
   width="266"
   height="247"
   viewBox="0 0 266 247.00001"
   sodipodi:docname="eu-co-funded-v-outline-bw-en.svg"
   inkscape:version="1.2.2 (b0a84865, 2022-12-01)"
   xmlns:inkscape="http://www.inkscape.org/namespaces/inkscape"
   xmlns:sodipodi="http://sodipodi.sourceforge.net/DTD/sodipodi-0.dtd"
   xmlns="http://www.w3.org/2000/svg"
   xmlns:svg="http://www.w3.org/2000/svg">
  <sodipodi:namedview
     id="namedview176"
     pagecolor="#ffffff"
     bordercolor="#666666"
     borderopacity="1.0"
     inkscape:showpageshadow="2"
     inkscape:pageopacity="0.0"
     inkscape:pagecheckerboard="0"
     inkscape:deskcolor="#d1d1d1"
     showgrid="false"
     inkscape:zoom="0.80072381"
     inkscape:cx="96.162996"
     inkscape:cy="118.01822"
     inkscape:window-width="1220"
     inkscape:window-height="847"
     inkscape:window-x="178"
     inkscape:window-y="25"
     inkscape:window-maximized="0"
     inkscape:current-layer="svg934" />
  <defs
     id="defs938" />
  <g
     id="g942"
     transform="matrix(1.3333333,0,0,-1.3333333,-10.382813,271.05066)">
    <g
       id="g944"
       transform="scale(0.1)">
      <path
         d="M 1959.73,817.211 H 198.672 V 1991.27 H 1959.73 Z M 163.449,2025.38 V 781.309 H 1994.95 V 2025.38 H 163.449"
         style="fill:#201c1c;fill-opacity:1;fill-rule:nonzero;stroke:none"
         id="path946" />
      <path
         d="m 1041.68,1735.46 37.16,27.12 37.16,-27.12 -14.14,43.86 37.74,27.11 h -46.52 l -14.24,44.39 -14.24,-44.43 -46.5,0.04 37.72,-27.11 -14.14,-43.86"
         style="fill:#201c1c;fill-opacity:1;fill-rule:nonzero;stroke:none"
         id="path948" />
      <path
         d="m 849.367,1683.79 37.168,27.12 37.137,-27.12 -14.121,43.86 37.715,27.12 h -46.524 l -14.238,44.44 -14.238,-44.49 -46.493,0.05 37.715,-27.12 -14.121,-43.86"
         style="fill:#201c1c;fill-opacity:1;fill-rule:nonzero;stroke:none"
         id="path950" />
      <path
         d="m 745.82,1658.18 -14.234,-44.48 -46.508,0.05 37.727,-27.12 -14.141,-43.86 37.156,27.12 37.16,-27.12 -14.14,43.86 37.723,27.12 h -46.504 l -14.239,44.43"
         style="fill:#201c1c;fill-opacity:1;fill-rule:nonzero;stroke:none"
         id="path952" />
      <path
         d="m 694.199,1377.83 37.141,-27.12 -14.121,43.86 37.722,27.11 h -46.503 l -14.239,44.44 -14.238,-44.54 -46.523,0.1 37.746,-27.11 -14.141,-43.86 37.156,27.12"
         style="fill:#201c1c;fill-opacity:1;fill-rule:nonzero;stroke:none"
         id="path954" />
      <path
         d="m 760.059,1229.04 -14.239,44.44 -14.234,-44.49 -46.508,0.05 37.727,-27.12 -14.141,-43.86 37.156,27.17 37.16,-27.17 -14.14,43.86 37.723,27.12 h -46.504"
         style="fill:#201c1c;fill-opacity:1;fill-rule:nonzero;stroke:none"
         id="path956" />
      <path
         d="m 901.035,1088.06 -14.238,44.39 -14.207,-44.44 -46.524,0.05 37.715,-27.12 -14.121,-43.86 37.168,27.12 37.129,-27.12 -14.113,43.86 37.715,27.12 h -46.524"
         style="fill:#201c1c;fill-opacity:1;fill-rule:nonzero;stroke:none"
         id="path958" />
      <path
         d="m 1093.1,1036.97 -14.24,44.44 -14.21,-44.48 -46.52,0.04 37.71,-27.11 -14.12,-43.86 37.17,27.121 37.13,-27.121 -14.14,43.86 37.74,27.11 h -46.52"
         style="fill:#201c1c;fill-opacity:1;fill-rule:nonzero;stroke:none"
         id="path960" />
      <path
         d="m 1285.16,1088.06 -14.21,44.39 -14.27,-44.44 -46.47,0.05 37.69,-27.12 -14.11,-43.86 37.16,27.12 37.16,-27.12 -14.16,43.86 37.73,27.12 h -46.52"
         style="fill:#201c1c;fill-opacity:1;fill-rule:nonzero;stroke:none"
         id="path962" />
      <path
         d="m 1426.19,1229.04 -14.26,44.44 -14.26,-44.49 -46.49,0.05 37.75,-27.12 -14.16,-43.86 37.16,27.17 37.15,-27.17 -14.16,43.86 37.75,27.12 h -46.48"
         style="fill:#201c1c;fill-opacity:1;fill-rule:nonzero;stroke:none"
         id="path964" />
      <path
         d="m 1523.75,1422.22 h -46.52 l -14.27,44.43 -14.21,-44.48 -46.52,0.05 37.73,-27.12 -14.11,-43.86 37.11,27.17 37.16,-27.17 -14.11,43.86 37.74,27.12"
         style="fill:#201c1c;fill-opacity:1;fill-rule:nonzero;stroke:none"
         id="path966" />
      <path
         d="m 1374.77,1543.35 37.16,27.12 37.15,-27.12 -14.16,43.86 37.75,27.07 h -46.48 l -14.26,44.43 -14.26,-44.48 -46.49,0.05 37.75,-27.07 -14.16,-43.86"
         style="fill:#201c1c;fill-opacity:1;fill-rule:nonzero;stroke:none"
         id="path968" />
      <path
         d="m 1271.49,1799.16 -14.22,-44.49 -46.53,0.1 37.7,-27.17 -14.12,-43.85 37.21,27.16 37.11,-27.16 -14.12,43.85 37.75,27.17 h -46.58 l -14.2,44.39"
         style="fill:#201c1c;fill-opacity:1;fill-rule:nonzero;stroke:none"
         id="path970" />
      <path
         d="m 485.43,537.25 29.425,-9.34 c -4.511,-16.41 -12.019,-28.59 -22.511,-36.551 -10.489,-7.968 -23.809,-11.949 -39.942,-11.949 -19.961,0 -36.367,6.82 -49.218,20.449 -12.848,13.653 -19.278,32.289 -19.278,55.942 0,25.019 6.465,44.449 19.387,58.289 12.918,13.851 29.91,20.769 50.965,20.769 18.379,0 33.32,-5.437 44.805,-16.308 6.835,-6.422 11.964,-15.653 15.382,-27.68 l -30.05,-7.18 c -1.778,7.789 -5.477,13.95 -11.122,18.457 -5.636,4.512 -12.492,6.774 -20.558,6.774 -11.141,0 -20.184,-4 -27.117,-12.012 -6.946,-7.98 -10.41,-20.941 -10.41,-38.851 0,-19.008 3.417,-32.539 10.253,-40.61 6.836,-8.07 15.723,-12.097 26.661,-12.097 8.066,0 15.007,2.558 20.808,7.699 5.82,5.109 9.981,13.179 12.52,24.199"
         style="fill:#201c1c;fill-opacity:1;fill-rule:nonzero;stroke:none"
         id="path972" />
      <path
         d="m 563.555,536.43 c 0,-10.809 2.57,-19.09 7.699,-24.828 5.125,-5.743 11.441,-8.614 18.961,-8.614 7.519,0 13.828,2.871 18.926,8.614 5.089,5.738 7.636,14.078 7.636,25.019 0,10.668 -2.547,18.867 -7.636,24.609 -5.098,5.739 -11.407,8.61 -18.926,8.61 -7.52,0 -13.836,-2.871 -18.961,-8.61 -5.129,-5.742 -7.699,-14.011 -7.699,-24.8 z m -29.532,1.531 c 0,9.57 2.364,18.828 7.082,27.777 4.715,8.961 11.399,15.801 20.047,20.512 8.645,4.73 18.301,7.082 28.965,7.082 16.477,0 29.981,-5.352 40.512,-16.043 10.523,-10.707 15.777,-24.219 15.777,-40.559 0,-16.48 -5.312,-30.128 -15.937,-40.968 -10.633,-10.832 -24.012,-16.25 -40.145,-16.25 -9.98,0 -19.504,2.258 -28.566,6.769 -9.051,4.508 -15.938,11.117 -20.653,19.84 -4.718,8.711 -7.082,19.328 -7.082,31.84"
         style="fill:#201c1c;fill-opacity:1;fill-rule:nonzero;stroke:none"
         id="path974" />
      <path
         d="m 665.684,522.07 v 28.809 h 56.601 V 522.07 h -56.601"
         style="fill:#201c1c;fill-opacity:1;fill-rule:nonzero;stroke:none"
         id="path976" />
      <path
         d="m 726.289,590.871 h 15.996 v 8.199 c 0,9.16 0.977,16 2.922,20.512 1.953,4.508 5.535,8.18 10.77,11.027 5.226,2.832 11.836,4.25 19.843,4.25 8.203,0 16.231,-1.23 24.094,-3.687 l -3.898,-20.102 c -4.578,1.09 -8.993,1.641 -13.223,1.641 -4.18,0 -7.164,-0.973 -8.973,-2.922 -1.816,-1.949 -2.726,-5.687 -2.726,-11.238 v -7.68 h 21.543 v -22.672 h -21.543 v -86.23 h -28.809 v 86.23 h -15.996 v 22.672"
         style="fill:#201c1c;fill-opacity:1;fill-rule:nonzero;stroke:none"
         id="path978" />
      <path
         d="m 880.508,481.969 v 16.312 c -3.965,-5.82 -9.18,-10.402 -15.633,-13.75 -6.465,-3.34 -13.281,-5.019 -20.461,-5.019 -7.312,0 -13.875,1.609 -19.687,4.828 -5.809,3.199 -10.016,7.711 -12.606,13.531 -2.609,5.801 -3.906,13.84 -3.906,24.09 v 68.91 h 28.816 v -50.039 c 0,-15.312 0.528,-24.703 1.594,-28.141 1.055,-3.461 2.988,-6.203 5.789,-8.211 2.805,-2.019 6.359,-3.019 10.664,-3.019 4.926,0 9.328,1.34 13.235,4.051 3.886,2.687 6.562,6.039 7.988,10.047 1.445,3.992 2.16,13.793 2.16,29.371 v 45.941 h 28.816 V 481.969 h -26.769"
         style="fill:#201c1c;fill-opacity:1;fill-rule:nonzero;stroke:none"
         id="path980" />
      <path
         d="m 1036.15,481.969 h -28.8 v 55.582 c 0,11.758 -0.62,19.359 -1.85,22.808 -1.23,3.461 -3.23,6.129 -5.996,8.063 -2.774,1.898 -6.106,2.867 -10,2.867 -4.992,0 -9.473,-1.379 -13.43,-4.098 -3.972,-2.75 -6.687,-6.371 -8.152,-10.882 -1.477,-4.508 -2.207,-12.848 -2.207,-25.02 v -49.32 h -28.82 v 108.902 h 26.769 v -16 c 9.5,12.309 21.465,18.461 35.887,18.461 6.359,0 12.169,-1.141 17.429,-3.441 5.27,-2.282 9.25,-5.211 11.95,-8.762 2.7,-3.559 4.58,-7.59 5.64,-12.109 1.06,-4.508 1.58,-10.961 1.58,-19.372 v -67.679"
         style="fill:#201c1c;fill-opacity:1;fill-rule:nonzero;stroke:none"
         id="path982" />
      <path
         d="m 1088.36,538.781 c 0,-11.621 1.6,-20.031 4.82,-25.23 4.64,-7.512 11.14,-11.27 19.48,-11.27 6.63,0 12.26,2.821 16.91,8.449 4.65,5.649 6.97,14.059 6.97,25.29 0,12.5 -2.24,21.511 -6.75,27.011 -4.52,5.508 -10.3,8.258 -17.34,8.258 -6.83,0 -12.56,-2.73 -17.18,-8.16 -4.6,-5.43 -6.91,-13.547 -6.91,-24.348 z m 76.9,-56.812 h -26.76 v 16 c -4.45,-6.219 -9.69,-10.848 -15.74,-13.899 -6.05,-3.031 -12.15,-4.558 -18.31,-4.558 -12.51,0 -23.22,5.039 -32.14,15.129 -8.92,10.078 -13.38,24.148 -13.38,42.199 0,18.449 4.33,32.48 13.02,42.09 8.68,9.601 19.65,14.402 32.91,14.402 12.17,0 22.7,-5.062 31.59,-15.184 v 54.141 h 28.81 v -150.32"
         style="fill:#201c1c;fill-opacity:1;fill-rule:nonzero;stroke:none"
         id="path984" />
      <path
         d="m 1258.37,545.75 c -0.2,8.34 -2.35,14.68 -6.45,19.031 -4.11,4.328 -9.11,6.508 -14.98,6.508 -6.29,0 -11.49,-2.301 -15.59,-6.879 -4.1,-4.578 -6.11,-10.801 -6.05,-18.66 z m -1.64,-29.121 28.71,-4.809 c -3.69,-10.539 -9.52,-18.55 -17.48,-24.058 -7.97,-5.492 -17.93,-8.25 -29.89,-8.25 -18.94,0 -32.95,6.179 -42.04,18.558 -7.18,9.91 -10.77,22.418 -10.77,37.539 0,18.039 4.72,32.172 14.16,42.391 9.43,10.219 21.35,15.332 35.78,15.332 16.2,0 28.98,-5.352 38.35,-16.043 9.36,-10.707 13.83,-27.09 13.42,-49.168 h -72.18 c 0.21,-8.551 2.53,-15.199 6.97,-19.949 4.44,-4.75 9.98,-7.133 16.62,-7.133 4.51,0 8.3,1.242 11.38,3.699 3.07,2.461 5.4,6.422 6.97,11.891"
         style="fill:#201c1c;fill-opacity:1;fill-rule:nonzero;stroke:none"
         id="path986" />
      <path
         d="m 1333.43,538.781 c 0,-11.621 1.6,-20.031 4.81,-25.23 4.65,-7.512 11.15,-11.27 19.49,-11.27 6.63,0 12.26,2.821 16.91,8.449 4.65,5.649 6.97,14.059 6.97,25.29 0,12.5 -2.24,21.511 -6.75,27.011 -4.52,5.508 -10.3,8.258 -17.34,8.258 -6.83,0 -12.56,-2.73 -17.18,-8.16 -4.61,-5.43 -6.91,-13.547 -6.91,-24.348 z m 76.89,-56.812 h -26.75 v 16 c -4.45,-6.219 -9.69,-10.848 -15.75,-13.899 -6.04,-3.031 -12.14,-4.558 -18.3,-4.558 -12.51,0 -23.22,5.039 -32.15,15.129 -8.91,10.078 -13.37,24.148 -13.37,42.199 0,18.449 4.33,32.48 13.02,42.09 8.67,9.601 19.65,14.402 32.91,14.402 12.17,0 22.7,-5.062 31.59,-15.184 v 54.141 h 28.8 v -150.32"
         style="fill:#201c1c;fill-opacity:1;fill-rule:nonzero;stroke:none"
         id="path988" />
      <path
         d="m 1524.45,538.781 c 0,-11.281 1.78,-19.621 5.34,-25.019 4.99,-7.66 11.62,-11.481 19.89,-11.481 6.36,0 11.78,2.707 16.25,8.149 4.48,5.429 6.72,13.992 6.72,25.679 0,12.442 -2.26,21.422 -6.77,26.922 -4.51,5.508 -10.29,8.258 -17.33,8.258 -6.91,0 -12.65,-2.687 -17.23,-8.059 -4.58,-5.359 -6.87,-13.511 -6.87,-24.449 z m -28.6,-56.812 v 150.32 h 28.81 v -54.141 c 8.89,10.122 19.41,15.184 31.58,15.184 13.26,0 24.23,-4.801 32.91,-14.402 8.68,-9.61 13.03,-23.399 13.03,-41.379 0,-18.59 -4.42,-32.922 -13.28,-42.961 -8.85,-10.059 -19.6,-15.078 -32.25,-15.078 -6.22,0 -12.35,1.547 -18.41,4.668 -6.04,3.109 -11.26,7.699 -15.63,13.789 v -16 h -26.76"
         style="fill:#201c1c;fill-opacity:1;fill-rule:nonzero;stroke:none"
         id="path990" />
      <path
         d="m 1611.71,590.871 h 30.65 l 26.06,-77.32 25.43,77.32 h 29.83 l -38.44,-104.801 -6.88,-18.961 c -2.53,-6.371 -4.94,-11.211 -7.23,-14.57 -2.29,-3.34 -4.92,-6.07 -7.9,-8.148 -2.96,-2.09 -6.63,-3.711 -10.96,-4.871 -4.35,-1.161 -9.25,-1.75 -14.72,-1.75 -5.54,0 -10.97,0.589 -16.3,1.75 l -2.57,22.562 c 4.51,-0.891 8.58,-1.344 12.2,-1.344 6.7,0 11.66,1.973 14.87,5.903 3.22,3.937 5.68,8.949 7.39,15.019 l -41.43,109.211"
         style="fill:#201c1c;fill-opacity:1;fill-rule:nonzero;stroke:none"
         id="path992" />
      <path
         d="m 147.199,338.871 v -22.973 h -19.687 v -43.886 c 0,-8.891 0.183,-14.063 0.566,-15.543 0.371,-1.457 1.231,-2.68 2.559,-3.629 1.336,-0.969 2.957,-1.442 4.871,-1.442 2.668,0 6.523,0.922 11.582,2.774 l 2.461,-22.352 c -6.699,-2.871 -14.278,-4.308 -22.754,-4.308 -5.195,0 -9.883,0.867 -14.051,2.617 -4.172,1.742 -7.226,3.992 -9.18,6.762 -1.945,2.769 -3.293,6.519 -4.0543,11.23 -0.6054,3.34 -0.9179,10.109 -0.9179,20.309 v 47.468 H 85.3711 v 22.973 H 98.5938 V 360.5 l 28.9182,16.809 v -38.438 h 19.687"
         style="fill:#201c1c;fill-opacity:1;fill-rule:nonzero;stroke:none"
         id="path994" />
      <path
         d="m 195.898,380.289 v -55.258 c 9.297,10.86 20.411,16.297 33.332,16.297 6.629,0 12.606,-1.226 17.938,-3.687 5.336,-2.461 9.355,-5.61 12.051,-9.442 2.699,-3.828 4.551,-8.058 5.539,-12.711 0.984,-4.648 1.496,-11.867 1.496,-21.629 v -63.89 h -28.82 v 57.519 c 0,11.422 -0.547,18.672 -1.641,21.742 -1.094,3.079 -3.027,5.532 -5.789,7.329 -2.777,1.82 -6.242,2.73 -10.414,2.73 -4.785,0 -9.063,-1.168 -12.813,-3.5 -3.769,-2.32 -6.511,-5.82 -8.261,-10.508 -1.739,-4.672 -2.618,-11.601 -2.618,-20.761 V 229.969 H 167.09 v 150.32 h 28.808"
         style="fill:#201c1c;fill-opacity:1;fill-rule:nonzero;stroke:none"
         id="path996" />
      <path
         d="m 360.176,293.75 c -0.215,8.34 -2.363,14.68 -6.465,19.02 -4.102,4.339 -9.09,6.519 -14.969,6.519 -6.289,0 -11.484,-2.301 -15.586,-6.879 -4.101,-4.578 -6.125,-10.801 -6.047,-18.66 z m -1.641,-29.121 28.711,-4.82 c -3.691,-10.528 -9.531,-18.539 -17.48,-24.047 -7.969,-5.5 -17.93,-8.25 -29.903,-8.25 -18.925,0 -32.945,6.179 -42.027,18.547 -7.191,9.921 -10.773,22.429 -10.773,37.543 0,18.046 4.714,32.179 14.148,42.398 9.434,10.219 21.367,15.328 35.781,15.328 16.211,0 28.985,-5.348 38.36,-16.047 9.359,-10.699 13.839,-27.09 13.429,-49.172 h -72.187 c 0.203,-8.539 2.527,-15.187 6.972,-19.937 4.442,-4.75 9.981,-7.133 16.61,-7.133 4.512,0 8.301,1.231 11.387,3.691 3.066,2.469 5.39,6.43 6.972,11.899"
         style="fill:#201c1c;fill-opacity:1;fill-rule:nonzero;stroke:none"
         id="path998" />
      <path
         d="m 470.813,229.969 v 150.32 h 111.453 v -25.43 h -81.102 v -33.328 h 75.469 v -25.32 h -75.469 v -40.91 h 83.973 V 229.969 H 470.813"
         style="fill:#201c1c;fill-opacity:1;fill-rule:nonzero;stroke:none"
         id="path1000" />
      <path
         d="m 682.344,229.969 v 16.312 c -3.965,-5.82 -9.18,-10.402 -15.625,-13.75 -6.465,-3.34 -13.281,-5.019 -20.465,-5.019 -7.309,0 -13.871,1.609 -19.691,4.82 -5.801,3.207 -10.008,7.719 -12.606,13.539 -2.598,5.801 -3.898,13.84 -3.898,24.09 v 68.91 h 28.808 v -50.043 c 0,-15.308 0.528,-24.699 1.602,-28.148 1.054,-3.45 2.992,-6.192 5.785,-8.2 2.809,-2.019 6.363,-3.031 10.66,-3.031 4.922,0 9.34,1.352 13.234,4.063 3.895,2.687 6.563,6.039 7.997,10.039 1.437,4 2.148,13.789 2.148,29.379 v 45.941 h 28.82 V 229.969 h -26.769"
         style="fill:#201c1c;fill-opacity:1;fill-rule:nonzero;stroke:none"
         id="path1002" />
      <path
         d="m 766.535,229.969 h -28.82 v 108.902 h 26.769 v -15.48 c 4.579,7.3 8.7,12.129 12.352,14.449 3.664,2.332 7.812,3.488 12.461,3.488 6.562,0 12.883,-1.816 18.976,-5.437 l -8.925,-25.121 c -4.856,3.152 -9.368,4.718 -13.535,4.718 -4.036,0 -7.454,-1.117 -10.254,-3.328 -2.805,-2.23 -5.012,-6.238 -6.614,-12.051 -1.609,-5.808 -2.41,-17.98 -2.41,-36.507 v -33.633"
         style="fill:#201c1c;fill-opacity:1;fill-rule:nonzero;stroke:none"
         id="path1004" />
      <path
         d="m 843.547,284.422 c 0,-10.813 2.566,-19.082 7.683,-24.82 5.137,-5.743 11.458,-8.614 18.977,-8.614 7.52,0 13.828,2.871 18.914,8.614 5.098,5.738 7.637,14.078 7.637,25.019 0,10.66 -2.539,18.867 -7.637,24.609 -5.086,5.739 -11.394,8.61 -18.914,8.61 -7.519,0 -13.84,-2.871 -18.977,-8.61 -5.117,-5.742 -7.683,-14.019 -7.683,-24.808 z m -29.531,1.539 c 0,9.57 2.351,18.828 7.078,27.777 4.707,8.961 11.398,15.801 20.039,20.512 8.652,4.719 18.301,7.078 28.965,7.078 16.476,0 29.98,-5.348 40.507,-16.047 10.528,-10.699 15.793,-24.222 15.793,-40.551 0,-16.48 -5.312,-30.128 -15.949,-40.968 -10.625,-10.832 -24.011,-16.25 -40.136,-16.25 -9.989,0 -19.5,2.258 -28.563,6.769 -9.055,4.508 -15.949,11.117 -20.656,19.84 -4.727,8.711 -7.078,19.328 -7.078,31.84"
         style="fill:#201c1c;fill-opacity:1;fill-rule:nonzero;stroke:none"
         id="path1006" />
      <path
         d="m 976.633,286.262 c 0,-12.242 2.43,-21.274 7.285,-27.121 4.852,-5.84 10.762,-8.762 17.732,-8.762 6.7,0 12.28,2.68 16.72,8.051 4.44,5.359 6.66,14.16 6.66,26.402 0,11.406 -2.28,19.887 -6.86,25.43 -4.58,5.527 -10.26,8.297 -17.03,8.297 -7.038,0 -12.886,-2.707 -17.535,-8.149 -4.648,-5.43 -6.972,-13.488 -6.972,-24.148 z m -28.496,52.609 h 26.855 v -16 c 3.496,5.469 8.203,9.91 14.16,13.328 5.938,3.422 12.538,5.129 19.788,5.129 12.64,0 23.38,-4.957 32.19,-14.867 8.82,-9.922 13.24,-23.731 13.24,-41.43 0,-18.179 -4.46,-32.32 -13.34,-42.39 -8.89,-10.09 -19.65,-15.129 -32.3,-15.129 -6.01,0 -11.464,1.199 -16.355,3.59 -4.883,2.386 -10.031,6.488 -15.43,12.308 v -54.871 h -28.808 v 150.332"
         style="fill:#201c1c;fill-opacity:1;fill-rule:nonzero;stroke:none"
         id="path1008" />
      <path
         d="m 1141.93,293.75 c -0.21,8.34 -2.36,14.68 -6.46,19.02 -4.1,4.339 -9.1,6.519 -14.98,6.519 -6.29,0 -11.48,-2.301 -15.59,-6.879 -4.1,-4.578 -6.11,-10.801 -6.04,-18.66 z m -1.65,-29.121 28.72,-4.82 c -3.7,-10.528 -9.53,-18.539 -17.48,-24.047 -7.97,-5.5 -17.93,-8.25 -29.9,-8.25 -18.93,0 -32.95,6.179 -42.04,18.547 -7.18,9.921 -10.77,22.429 -10.77,37.543 0,18.046 4.73,32.179 14.16,42.398 9.43,10.219 21.36,15.328 35.78,15.328 16.2,0 28.99,-5.348 38.35,-16.047 9.37,-10.699 13.84,-27.09 13.43,-49.172 h -72.19 c 0.22,-8.539 2.53,-15.187 6.97,-19.937 4.45,-4.75 9.98,-7.133 16.63,-7.133 4.51,0 8.3,1.231 11.37,3.691 3.08,2.469 5.4,6.43 6.97,11.899"
         style="fill:#201c1c;fill-opacity:1;fill-rule:nonzero;stroke:none"
         id="path1010" />
      <path
         d="m 1254.1,282.27 c -3.69,-1.231 -9.53,-2.711 -17.53,-4.411 -7.99,-1.718 -13.23,-3.39 -15.69,-5.027 -3.76,-2.66 -5.63,-6.043 -5.63,-10.141 0,-4.05 1.5,-7.531 4.51,-10.472 3.01,-2.938 6.83,-4.41 11.48,-4.41 5.2,0 10.15,1.711 14.87,5.132 3.48,2.598 5.78,5.77 6.87,9.528 0.75,2.461 1.12,7.152 1.12,14.051 z m -38.55,23.371 -26.14,4.718 c 2.94,10.532 7.99,18.321 15.17,23.379 7.18,5.063 17.84,7.59 31.99,7.59 12.86,0 22.43,-1.527 28.71,-4.558 6.29,-3.051 10.72,-6.911 13.29,-11.59 2.55,-4.68 3.83,-13.282 3.83,-25.801 l -0.3,-33.629 c 0,-9.57 0.46,-16.621 1.39,-21.168 0.92,-4.543 2.64,-9.41 5.17,-14.613 h -28.5 c -0.75,1.91 -1.68,4.75 -2.78,8.519 -0.47,1.703 -0.82,2.832 -1.01,3.383 -4.92,-4.789 -10.2,-8.383 -15.8,-10.769 -5.61,-2.391 -11.58,-3.59 -17.94,-3.59 -11.21,0 -20.05,3.039 -26.51,9.117 -6.46,6.082 -9.69,13.781 -9.69,23.082 0,6.148 1.47,11.641 4.41,16.449 2.94,4.828 7.06,8.52 12.35,11.078 5.31,2.563 12.94,4.801 22.92,6.723 13.47,2.519 22.8,4.879 27.99,7.07 v 2.867 c 0,5.543 -1.36,9.493 -4.1,11.84 -2.73,2.371 -7.89,3.551 -15.48,3.551 -5.12,0 -9.13,-1.019 -12,-3.027 -2.87,-2.024 -5.19,-5.563 -6.97,-10.621"
         style="fill:#201c1c;fill-opacity:1;fill-rule:nonzero;stroke:none"
         id="path1012" />
      <path
         d="m 1409.86,229.969 h -28.8 v 55.582 c 0,11.75 -0.62,19.359 -1.85,22.808 -1.23,3.461 -3.23,6.129 -6,8.063 -2.77,1.898 -6.1,2.867 -10,2.867 -4.99,0 -9.47,-1.379 -13.42,-4.098 -3.98,-2.75 -6.69,-6.371 -8.16,-10.882 -1.47,-4.52 -2.2,-12.848 -2.2,-25.02 v -49.32 h -28.82 v 108.902 h 26.76 v -16 c 9.51,12.309 21.47,18.457 35.89,18.457 6.36,0 12.17,-1.137 17.43,-3.437 5.27,-2.282 9.25,-5.211 11.95,-8.762 2.7,-3.559 4.58,-7.598 5.64,-12.109 1.06,-4.508 1.58,-10.969 1.58,-19.372 v -67.679"
         style="fill:#201c1c;fill-opacity:1;fill-rule:nonzero;stroke:none"
         id="path1014" />
      <path
         d="m 1497.44,380.289 h 30.35 v -81.41 c 0,-12.918 0.38,-21.301 1.13,-25.117 1.3,-6.153 4.39,-11.09 9.27,-14.821 4.9,-3.73 11.58,-5.589 20.05,-5.589 8.62,0 15.11,1.757 19.49,5.277 4.37,3.519 7,7.84 7.9,12.973 0.88,5.128 1.32,13.636 1.32,25.539 v 83.148 h 30.36 V 301.34 c 0,-18.051 -0.82,-30.801 -2.46,-38.238 -1.65,-7.473 -4.67,-13.75 -9.08,-18.872 -4.41,-5.14 -10.3,-9.218 -17.68,-12.261 -7.39,-3.039 -17.03,-4.559 -28.93,-4.559 -14.35,0 -25.23,1.649 -32.65,4.969 -7.42,3.312 -13.29,7.621 -17.58,12.922 -4.32,5.301 -7.15,10.847 -8.52,16.66 -1.98,8.617 -2.97,21.328 -2.97,38.148 v 80.18"
         style="fill:#201c1c;fill-opacity:1;fill-rule:nonzero;stroke:none"
         id="path1016" />
      <path
         d="m 1748.14,229.969 h -28.81 v 55.582 c 0,11.75 -0.62,19.359 -1.85,22.808 -1.23,3.461 -3.23,6.129 -5.99,8.063 -2.78,1.898 -6.11,2.867 -10,2.867 -4.99,0 -9.48,-1.379 -13.43,-4.098 -3.98,-2.75 -6.69,-6.371 -8.16,-10.882 -1.47,-4.52 -2.2,-12.848 -2.2,-25.02 v -49.32 h -28.82 v 108.902 h 26.77 v -16 c 9.5,12.309 21.46,18.457 35.88,18.457 6.36,0 12.17,-1.137 17.44,-3.437 5.26,-2.282 9.24,-5.211 11.94,-8.762 2.7,-3.559 4.58,-7.598 5.64,-12.109 1.06,-4.508 1.59,-10.969 1.59,-19.372 v -67.679"
         style="fill:#201c1c;fill-opacity:1;fill-rule:nonzero;stroke:none"
         id="path1018" />
      <path
         d="m 1777.36,229.969 v 108.902 h 28.81 V 229.969 Z m 0,123.66 v 26.66 h 28.81 v -26.66 h -28.81"
         style="fill:#201c1c;fill-opacity:1;fill-rule:nonzero;stroke:none"
         id="path1020" />
      <path
         d="m 1858.58,284.422 c 0,-10.813 2.56,-19.082 7.68,-24.82 5.14,-5.743 11.46,-8.614 18.98,-8.614 7.52,0 13.82,2.871 18.91,8.614 5.1,5.738 7.64,14.078 7.64,25.019 0,10.66 -2.54,18.867 -7.64,24.609 -5.09,5.739 -11.39,8.61 -18.91,8.61 -7.52,0 -13.84,-2.871 -18.98,-8.61 -5.12,-5.742 -7.68,-14.019 -7.68,-24.808 z m -29.54,1.539 c 0,9.57 2.36,18.828 7.08,27.777 4.71,8.961 11.4,15.801 20.04,20.512 8.66,4.719 18.3,7.078 28.97,7.078 16.47,0 29.98,-5.348 40.51,-16.047 10.52,-10.699 15.79,-24.222 15.79,-40.551 0,-16.48 -5.32,-30.128 -15.95,-40.968 -10.62,-10.832 -24.01,-16.25 -40.14,-16.25 -9.99,0 -19.5,2.258 -28.56,6.769 -9.05,4.508 -15.95,11.117 -20.66,19.84 -4.72,8.711 -7.08,19.328 -7.08,31.84"
         style="fill:#201c1c;fill-opacity:1;fill-rule:nonzero;stroke:none"
         id="path1022" />
      <path
         d="m 2063.03,229.969 h -28.81 v 55.582 c 0,11.75 -0.61,19.359 -1.85,22.808 -1.23,3.461 -3.23,6.129 -5.99,8.063 -2.77,1.898 -6.11,2.867 -10,2.867 -4.99,0 -9.47,-1.379 -13.43,-4.098 -3.97,-2.75 -6.69,-6.371 -8.15,-10.882 -1.48,-4.52 -2.21,-12.848 -2.21,-25.02 v -49.32 h -28.82 v 108.902 h 26.77 v -16 c 9.5,12.309 21.46,18.457 35.89,18.457 6.35,0 12.17,-1.137 17.43,-3.437 5.26,-2.282 9.25,-5.211 11.94,-8.762 2.71,-3.559 4.58,-7.598 5.65,-12.109 1.05,-4.508 1.58,-10.969 1.58,-19.372 v -67.679"
         style="fill:#201c1c;fill-opacity:1;fill-rule:nonzero;stroke:none"
         id="path1024" />
    </g>
  </g>
</svg>
