<?xml version="1.0" encoding="UTF-8" standalone="no"?>
<!-- Created with Inkscape (http://www.inkscape.org/) -->

<svg
   version="1.1"
   id="svg132"
   width="630"
   height="228.3329"
   viewBox="0 0 630 228.3329"
   sodipodi:docname="iit-bw.svg"
   inkscape:version="1.2.2 (b0a84865, 2022-12-01)"
   xmlns:inkscape="http://www.inkscape.org/namespaces/inkscape"
   xmlns:sodipodi="http://sodipodi.sourceforge.net/DTD/sodipodi-0.dtd"
   xmlns="http://www.w3.org/2000/svg"
   xmlns:svg="http://www.w3.org/2000/svg">
  <sodipodi:namedview
     id="namedview143"
     pagecolor="#ffffff"
     bordercolor="#666666"
     borderopacity="1.0"
     inkscape:showpageshadow="2"
     inkscape:pageopacity="0.0"
     inkscape:pagecheckerboard="0"
     inkscape:deskcolor="#d1d1d1"
     showgrid="false"
     inkscape:zoom="1.0335786"
     inkscape:cx="309.60393"
     inkscape:cy="117.06899"
     inkscape:window-width="1422"
     inkscape:window-height="562"
     inkscape:window-x="0"
     inkscape:window-y="25"
     inkscape:window-maximized="0"
     inkscape:current-layer="svg132" />
  <defs
     id="defs136" />
  <g
     id="g140"
     transform="matrix(1.3333333,0,0,1.3333333,-31.259999,4.3749892e-6)">
    <g
       id="g142">
      <path
         d="M 234.848,8.027 V 2.703 c 0,-0.668 -0.543,-1.211 -1.211,-1.211 h -5.867 c -0.668,0 -1.274,0.543 -1.274,1.211 v 5.324 c 0,0.668 0.606,1.211 1.274,1.211 h 5.867 c 0.668,0 1.211,-0.543 1.211,-1.211 z m -0.18,38.614 V 14.988 c 0,-0.664 -0.547,-1.211 -1.211,-1.211 h -5.566 c -0.668,0 -1.211,0.547 -1.211,1.211 v 31.653 c 0,0.664 0.543,1.269 1.211,1.269 h 5.566 c 0.664,0 1.211,-0.605 1.211,-1.269 z m 29.168,-7.688 c 0,-3.086 -0.727,-6.113 -5.809,-9.199 l -7.929,-4.84 c -1.512,-0.91 -2.418,-1.516 -2.418,-2.48 0,-1.879 1.269,-2.543 4.175,-2.543 3.45,0 8.29,0.484 9.985,0.726 0.058,0 0.121,0 0.242,0 0.606,0 0.969,-0.426 0.969,-1.152 v -3.508 c 0,-0.727 -0.363,-1.211 -1.09,-1.395 -3.086,-0.664 -5.871,-1.21 -10.773,-1.21 -7.684,0 -11.497,3.027 -11.497,9.082 0,3.507 2.118,6.535 5.082,8.351 l 8.293,5.082 c 1.934,1.211 2.661,1.938 2.661,3.086 0,1.637 -0.543,2.906 -4.297,2.906 -1.813,0 -7.262,-0.304 -10.164,-0.668 -0.063,0 -0.121,0 -0.243,0 -0.609,0 -1.031,0.485 -1.031,0.969 v 3.633 c 0,0.727 0.422,1.211 1.153,1.391 3.386,0.91 8.472,1.211 10.832,1.211 7.925,0 11.859,-4.176 11.859,-9.442 z m 22.332,7.867 v -3.75 c 0,-0.605 -0.484,-0.91 -1.27,-0.91 h -4.781 c -2.601,0 -3.691,-0.422 -3.691,-2.844 V 19.77 h 8.531 c 0.668,0 1.211,-0.547 1.211,-1.211 v -3.571 c 0,-0.664 -0.543,-1.211 -1.211,-1.211 h -8.531 V 7.848 c 0,-0.606 -0.485,-1.211 -1.031,-1.211 -0.059,0 -0.122,0 -0.18,0 l -5.629,0.968 c -0.664,0.122 -1.211,0.543 -1.211,1.211 v 30.5 c 0,7.02 3.57,9.079 9.563,9.079 2.542,0 5.628,-0.243 7.082,-0.485 0.785,-0.121 1.148,-0.484 1.148,-1.09 z M 298.152,8.027 V 2.703 c 0,-0.668 -0.547,-1.211 -1.211,-1.211 h -5.871 c -0.664,0 -1.269,0.543 -1.269,1.211 v 5.324 c 0,0.668 0.605,1.211 1.269,1.211 h 5.871 c 0.664,0 1.211,-0.543 1.211,-1.211 z m -0.183,38.614 V 14.988 c 0,-0.664 -0.543,-1.211 -1.211,-1.211 h -5.567 c -0.664,0 -1.211,0.547 -1.211,1.211 v 31.653 c 0,0.664 0.547,1.269 1.211,1.269 h 5.567 c 0.668,0 1.211,-0.605 1.211,-1.269 z m 23.726,0.179 v -3.75 c 0,-0.605 -0.488,-0.91 -1.273,-0.91 h -4.781 c -2.602,0 -3.692,-0.422 -3.692,-2.844 V 19.77 h 8.535 c 0.664,0 1.211,-0.547 1.211,-1.211 v -3.571 c 0,-0.664 -0.547,-1.211 -1.211,-1.211 h -8.535 V 7.848 c 0,-0.606 -0.484,-1.211 -1.027,-1.211 -0.063,0 -0.121,0 -0.184,0 l -5.629,0.968 c -0.664,0.122 -1.207,0.543 -1.207,1.211 v 30.5 c 0,7.02 3.571,9.079 9.563,9.079 2.539,0 5.625,-0.243 7.078,-0.485 0.785,-0.121 1.152,-0.484 1.152,-1.09 z M 352.984,33.75 V 15.047 c 0,-0.664 -0.488,-1.27 -1.152,-1.27 h -5.687 c -0.668,0 -1.149,0.606 -1.149,1.27 V 33.75 c 0,6.293 -2.301,7.746 -5.812,7.746 h -0.364 c -3.508,0 -5.808,-1.453 -5.808,-7.746 V 15.047 c 0,-0.664 -0.485,-1.27 -1.149,-1.27 h -5.691 c -0.664,0 -1.149,0.606 -1.149,1.27 V 33.75 c 0,13.191 10.227,14.645 13.797,14.645 h 0.364 c 3.57,0 13.8,-1.454 13.8,-14.645 z m 23.239,13.07 v -3.75 c 0,-0.605 -0.489,-0.91 -1.274,-0.91 h -4.781 c -2.602,0 -3.691,-0.422 -3.691,-2.844 V 19.77 h 8.535 c 0.664,0 1.211,-0.547 1.211,-1.211 v -3.571 c 0,-0.664 -0.547,-1.211 -1.211,-1.211 h -8.535 V 7.848 c 0,-0.606 -0.485,-1.211 -1.028,-1.211 -0.062,0 -0.121,0 -0.183,0 l -5.629,0.968 c -0.664,0.122 -1.207,0.543 -1.207,1.211 v 30.5 c 0,7.02 3.57,9.079 9.562,9.079 2.539,0 5.625,-0.243 7.078,-0.485 0.785,-0.121 1.153,-0.484 1.153,-1.09 z m 30.929,-13.496 v -4.902 c 0,-8.652 -4.964,-15.07 -14.464,-15.07 -9.5,0 -14.465,6.418 -14.465,15.07 v 4.902 c 0,8.656 4.965,15.071 14.465,15.071 9.5,0 14.464,-6.415 14.464,-15.071 z m -7.988,0 c 0,4.965 -2.238,8.172 -6.476,8.172 -4.235,0 -6.477,-3.207 -6.477,-8.172 v -4.902 c 0,-4.961 2.242,-8.168 6.477,-8.168 4.238,0 6.476,3.207 6.476,8.168 z"
         style="fill:#141514;fill-opacity:1;fill-rule:evenodd;stroke:none"
         id="path144" />
      <path
         d="M 234.848,63.645 V 58.32 c 0,-0.668 -0.543,-1.211 -1.211,-1.211 h -5.867 c -0.668,0 -1.274,0.543 -1.274,1.211 v 5.325 c 0,0.667 0.606,1.21 1.274,1.21 h 5.867 c 0.668,0 1.211,-0.543 1.211,-1.21 z m -0.18,38.613 V 70.605 c 0,-0.664 -0.547,-1.21 -1.211,-1.21 h -5.566 c -0.668,0 -1.211,0.546 -1.211,1.21 v 31.653 c 0,0.664 0.543,1.269 1.211,1.269 h 5.566 c 0.664,0 1.211,-0.605 1.211,-1.269 z m 23.723,0.18 v -3.75 c 0,-0.606 -0.485,-0.907 -1.274,-0.907 h -4.777 c -2.602,0 -3.695,-0.426 -3.695,-2.847 V 75.387 h 8.535 c 0.668,0 1.211,-0.543 1.211,-1.211 v -3.571 c 0,-0.664 -0.543,-1.21 -1.211,-1.21 h -8.535 v -5.93 c 0,-0.606 -0.481,-1.211 -1.028,-1.211 -0.058,0 -0.121,0 -0.179,0 l -5.629,0.969 c -0.664,0.121 -1.211,0.543 -1.211,1.211 v 30.5 c 0,7.019 3.57,9.078 9.562,9.078 2.543,0 5.629,-0.242 7.082,-0.485 0.785,-0.121 1.149,-0.484 1.149,-1.089 z m 30.683,-1.633 V 72.18 c 0,-0.907 -0.242,-1.274 -1.633,-1.637 -3.753,-0.965 -8.293,-1.57 -12.164,-1.57 -9.746,0 -14.465,5.75 -14.465,15.187 v 4.66 c 0,9.442 4.719,15.192 14.465,15.192 3.871,0 8.411,-0.606 12.164,-1.574 1.391,-0.364 1.633,-0.727 1.633,-1.633 z m -7.988,-3.754 c -1.152,0.242 -3.633,0.426 -5.809,0.426 -5.207,0 -6.476,-3.692 -6.476,-8.657 v -4.66 c 0,-4.961 1.269,-8.652 6.476,-8.652 2.176,0 4.657,0.18 5.809,0.422 z m 22.332,5.207 V 58.684 c 0,-0.668 -0.484,-1.211 -1.152,-1.211 h -5.625 c -0.668,0 -1.211,0.543 -1.211,1.211 v 43.574 c 0,0.664 0.543,1.269 1.211,1.269 h 5.625 c 0.668,0 1.152,-0.605 1.152,-1.269 z M 318.125,63.645 V 58.32 c 0,-0.668 -0.547,-1.211 -1.211,-1.211 h -5.871 c -0.664,0 -1.273,0.543 -1.273,1.211 v 5.325 c 0,0.667 0.609,1.21 1.273,1.21 h 5.871 c 0.664,0 1.211,-0.543 1.211,-1.21 z m -0.184,38.613 V 70.605 c 0,-0.664 -0.543,-1.21 -1.211,-1.21 h -5.566 c -0.664,0 -1.211,0.546 -1.211,1.21 v 31.653 c 0,0.664 0.547,1.269 1.211,1.269 h 5.566 c 0.668,0 1.211,-0.605 1.211,-1.269 z m 33.286,-1.453 V 72.18 c 0,-0.907 -0.243,-1.274 -1.633,-1.637 -3.754,-0.965 -8.293,-1.57 -12.164,-1.57 -9.746,0 -14.465,5.75 -14.465,15.187 v 4.66 c 0,9.442 4.719,15.192 14.465,15.192 3.871,0 8.41,-0.606 12.164,-1.574 1.39,-0.364 1.633,-0.727 1.633,-1.633 z m -7.989,-3.754 c -1.148,0.242 -3.629,0.426 -5.808,0.426 -5.207,0 -6.477,-3.692 -6.477,-8.657 v -4.66 c 0,-4.961 1.27,-8.652 6.477,-8.652 2.179,0 4.66,0.18 5.808,0.422 z m 41.7,5.207 V 81.316 c 0,-7.324 -4.235,-12.343 -12.106,-12.343 h -3.75 c -7.867,0 -12.105,5.019 -12.105,12.343 v 20.942 c 0,0.664 0.484,1.269 1.152,1.269 h 5.687 c 0.664,0 1.149,-0.605 1.149,-1.269 V 81.316 c 0,-2.964 0.605,-5.687 4.117,-5.687 h 3.75 c 3.512,0 4.117,2.723 4.117,5.687 v 20.942 c 0,0.664 0.485,1.269 1.149,1.269 h 5.691 c 0.664,0 1.149,-0.605 1.149,-1.269 z m 33.648,-13.317 v -4.902 c 0,-8.652 -4.965,-15.066 -14.465,-15.066 -9.5,0 -14.465,6.414 -14.465,15.066 v 4.902 c 0,8.657 4.965,15.071 14.465,15.071 9.5,0 14.465,-6.414 14.465,-15.071 z m -7.988,0 c 0,4.965 -2.243,8.172 -6.477,8.172 -4.238,0 -6.476,-3.207 -6.476,-8.172 v -4.902 c 0,-4.961 2.238,-8.168 6.476,-8.168 4.234,0 6.477,3.207 6.477,8.168 z"
         style="fill:#141514;fill-opacity:1;fill-rule:evenodd;stroke:none"
         id="path146" />
      <path
         d="M 459.738,100.805 V 58.684 c 0,-0.668 -0.543,-1.211 -1.207,-1.211 h -5.57 c -0.664,0 -1.211,0.543 -1.211,1.211 v 10.711 c -2.238,-0.305 -4.355,-0.422 -5.809,-0.422 -9.742,0 -14.464,5.75 -14.464,15.187 v 4.66 c 0,9.442 4.722,15.192 14.464,15.192 3.875,0 8.414,-0.606 12.164,-1.574 1.395,-0.364 1.633,-0.727 1.633,-1.633 z m -7.988,-3.754 c -1.148,0.242 -3.629,0.426 -5.809,0.426 -5.203,0 -6.476,-3.692 -6.476,-8.657 v -4.66 c 0,-4.961 1.273,-8.652 6.476,-8.652 1.454,0 4.118,0.18 5.809,0.422 z M 474.145,63.645 V 58.32 c 0,-0.668 -0.543,-1.211 -1.211,-1.211 h -5.872 c -0.664,0 -1.269,0.543 -1.269,1.211 v 5.325 c 0,0.667 0.605,1.21 1.269,1.21 h 5.872 c 0.668,0 1.211,-0.543 1.211,-1.21 z m -0.184,38.613 V 70.605 c 0,-0.664 -0.543,-1.21 -1.211,-1.21 h -5.566 c -0.664,0 -1.211,0.546 -1.211,1.21 v 31.653 c 0,0.664 0.547,1.269 1.211,1.269 h 5.566 c 0.668,0 1.211,-0.605 1.211,-1.269 z"
         style="fill:#000000;fill-opacity:1;fill-rule:evenodd;stroke:none"
         id="path148" />
      <path
         d="m 243.988,158.055 v -3.75 c 0,-0.606 -0.484,-0.907 -1.273,-0.907 h -4.777 c -2.606,0 -3.696,-0.425 -3.696,-2.847 v -19.547 h 8.535 c 0.664,0 1.211,-0.543 1.211,-1.211 v -3.57 c 0,-0.664 -0.547,-1.211 -1.211,-1.211 h -8.535 v -5.93 c 0,-0.605 -0.484,-1.211 -1.027,-1.211 -0.059,0 -0.121,0 -0.18,0 l -5.633,0.969 c -0.664,0.121 -1.207,0.543 -1.207,1.211 v 30.5 c 0,7.019 3.571,9.078 9.563,9.078 2.539,0 5.629,-0.242 7.082,-0.484 0.785,-0.122 1.148,-0.485 1.148,-1.09 z m 30.926,-14.703 v -3.391 c 0,-9.016 -5.086,-15.371 -14.402,-15.371 -9.262,0 -14.528,5.93 -14.528,15.371 v 4.477 c 0,11.925 8.594,15.191 14.649,15.191 5.445,0 7.805,-0.301 11.738,-1.027 1.09,-0.18 1.274,-0.606 1.274,-1.575 v -3.996 c 0,-0.605 -0.489,-0.906 -1.094,-0.906 -0.059,0 -0.117,0 -0.18,0 -2.543,0.242 -6.719,0.605 -11.137,0.605 -5.808,0 -7.261,-4.175 -7.261,-7.683 v -0.184 h 19.73 c 0.848,0 1.211,-0.547 1.211,-1.511 z m -8.051,-4.176 h -12.828 v -0.242 c 0,-4.782 2.723,-7.446 6.477,-7.446 3.75,0 6.351,2.723 6.351,7.446 z m 34.739,18.094 v -3.934 c 0,-0.606 -0.485,-0.91 -1.09,-0.91 -0.059,0 -0.121,0 -0.18,0 -2.422,0.304 -3.875,0.426 -7.809,0.426 -2.843,0 -5.808,-1.633 -5.808,-7.93 v -5.625 c 0,-6.297 2.965,-7.93 5.808,-7.93 3.934,0 5.387,0.121 7.809,0.422 0.059,0 0.121,0 0.18,0 0.605,0 1.09,-0.301 1.09,-0.906 v -3.934 c 0,-0.969 -0.243,-1.332 -1.27,-1.574 -1.394,-0.363 -4.117,-0.785 -7.809,-0.785 -7.867,0 -13.796,4.84 -13.796,14.707 v 5.625 c 0,9.867 5.929,14.707 13.796,14.707 3.692,0 6.415,-0.422 7.809,-0.785 1.027,-0.242 1.27,-0.606 1.27,-1.574 z m 32.5,0.605 v -20.941 c 0,-7.321 -4.239,-12.344 -12.106,-12.344 h -3.75 c -7.867,0 -12.105,5.023 -12.105,12.344 v 20.941 c 0,0.664 0.484,1.27 1.148,1.27 h 5.691 c 0.665,0 1.149,-0.606 1.149,-1.27 v -20.941 c 0,-2.965 0.605,-5.688 4.117,-5.688 h 3.75 c 3.512,0 4.117,2.723 4.117,5.688 v 20.941 c 0,0.664 0.485,1.27 1.149,1.27 h 5.691 c 0.664,0 1.149,-0.606 1.149,-1.27 z m 33.648,-13.316 v -4.903 c 0,-8.652 -4.965,-15.066 -14.465,-15.066 -9.504,0 -14.465,6.414 -14.465,15.066 v 4.903 c 0,8.656 4.961,15.07 14.465,15.07 9.5,0 14.465,-6.414 14.465,-15.07 z m -7.988,0 c 0,4.964 -2.242,8.171 -6.477,8.171 -4.238,0 -6.476,-3.207 -6.476,-8.171 v -4.903 c 0,-4.961 2.238,-8.168 6.476,-8.168 4.235,0 6.477,3.207 6.477,8.168 z m 21.3,13.316 v -43.574 c 0,-0.668 -0.484,-1.211 -1.148,-1.211 h -5.629 c -0.668,0 -1.211,0.543 -1.211,1.211 v 43.574 c 0,0.664 0.543,1.27 1.211,1.27 h 5.629 c 0.664,0 1.148,-0.606 1.148,-1.27 z m 34.254,-13.316 v -4.903 c 0,-8.652 -4.964,-15.066 -14.464,-15.066 -9.5,0 -14.465,6.414 -14.465,15.066 v 4.903 c 0,8.656 4.965,15.07 14.465,15.07 9.5,0 14.464,-6.414 14.464,-15.07 z m -7.988,0 c 0,4.964 -2.238,8.171 -6.476,8.171 -4.235,0 -6.477,-3.207 -6.477,-8.171 v -4.903 c 0,-4.961 2.242,-8.168 6.477,-8.168 4.238,0 6.476,3.207 6.476,8.168 z m 40.063,14.464 v -31.226 c 0,-0.906 -0.243,-1.274 -1.633,-1.633 -3.754,-0.969 -8.293,-1.574 -12.164,-1.574 -9.746,0 -14.465,5.75 -14.465,15.187 v 4.661 c 0,9.441 4.719,15.191 14.465,15.191 1.453,0 4.539,-0.422 5.808,-0.664 v 0.484 c 0,4.176 -0.726,5.387 -5.629,5.387 -2.781,0 -8.531,-0.484 -11.253,-0.727 -0.063,0 -0.125,0 -0.125,0 -0.665,0 -1.149,0.422 -1.149,1.028 v 3.207 c 0,0.847 0.363,1.211 1.211,1.453 2.238,0.726 6.234,1.453 11.316,1.453 9.262,0 13.618,-3.633 13.618,-12.227 z m -7.989,-6.414 c -1.695,0.243 -4.355,0.485 -5.808,0.485 -5.207,0 -6.477,-3.692 -6.477,-8.656 v -4.661 c 0,-4.961 1.27,-8.652 6.477,-8.652 2.179,0 4.66,0.301 5.808,0.543 z m 22.395,-33.347 v -5.324 c 0,-0.668 -0.547,-1.211 -1.211,-1.211 h -5.871 c -0.664,0 -1.274,0.543 -1.274,1.211 v 5.324 c 0,0.668 0.61,1.211 1.274,1.211 h 5.871 c 0.664,0 1.211,-0.543 1.211,-1.211 z m -0.184,38.613 v -31.652 c 0,-0.664 -0.543,-1.211 -1.211,-1.211 h -5.566 c -0.664,0 -1.211,0.547 -1.211,1.211 v 31.652 c 0,0.664 0.547,1.27 1.211,1.27 h 5.566 c 0.668,0 1.211,-0.606 1.211,-1.27 z m 33.285,-1.453 v -28.625 c 0,-0.906 -0.242,-1.274 -1.632,-1.633 -3.754,-0.969 -8.293,-1.574 -12.164,-1.574 -9.747,0 -14.465,5.75 -14.465,15.187 v 4.661 c 0,9.441 4.718,15.191 14.465,15.191 3.871,0 8.41,-0.606 12.164,-1.574 1.39,-0.364 1.632,-0.727 1.632,-1.633 z m -7.988,-3.754 c -1.148,0.242 -3.629,0.426 -5.808,0.426 -5.207,0 -6.477,-3.692 -6.477,-8.656 v -4.661 c 0,-4.961 1.27,-8.652 6.477,-8.652 2.179,0 4.66,0.18 5.808,0.422 z"
         style="fill:#141514;fill-opacity:1;fill-rule:evenodd;stroke:none"
         id="path150" />
      <path
         d="M 49.766,141.41 H 25.184 V 52.145 H 49.766 Z M 50.477,32.293 c 0,3.723 -1.266,6.855 -3.786,9.379 -2.511,2.562 -5.574,3.812 -9.164,3.812 -3.558,0 -6.605,-1.25 -9.144,-3.812 -2.531,-2.524 -3.813,-5.656 -3.813,-9.379 0,-3.617 1.282,-6.695 3.813,-9.223 2.539,-2.519 5.586,-3.804 9.144,-3.804 3.59,0 6.653,1.285 9.164,3.804 2.52,2.528 3.786,5.606 3.786,9.223 z"
         style="fill:#000000;fill-opacity:1;fill-rule:evenodd;stroke:none"
         id="path152" />
      <path
         d="M 96.801,141.41 H 72.227 V 52.145 H 96.801 Z M 97.496,32.293 c 0,3.723 -1.25,6.855 -3.762,9.379 -2.527,2.562 -5.586,3.812 -9.187,3.812 -3.543,0 -6.594,-1.25 -9.141,-3.812 -2.539,-2.524 -3.812,-5.656 -3.812,-9.379 0,-3.617 1.273,-6.695 3.812,-9.223 2.547,-2.519 5.598,-3.804 9.141,-3.804 3.601,0 6.66,1.285 9.187,3.804 2.512,2.528 3.762,5.606 3.762,9.223 z"
         style="fill:#000000;fill-opacity:1;fill-rule:evenodd;stroke:none"
         id="path154" />
      <path
         d="m 169.203,67.578 h -23.426 v 45.758 c 0,4.656 0.774,8.059 2.309,10.226 1.539,2.176 4.531,3.274 8.949,3.274 2.098,0 4.133,-0.176 6.082,-0.516 1.965,-0.332 3.754,-0.754 5.403,-1.273 V 139 c -2.633,1.09 -5.852,1.879 -9.668,2.406 -3.832,0.516 -7.598,0.778 -11.309,0.778 -8.113,0 -14.539,-2.625 -19.273,-7.879 -4.735,-5.239 -7.09,-12.778 -7.09,-22.606 V 67.43 H 110.625 V 54.707 l 11.477,-0.625 8.246,-29.707 h 15.429 v 29.566 h 23.426 z"
         style="fill:#000000;fill-opacity:1;fill-rule:evenodd;stroke:none"
         id="path156" />
    </g>
  </g>
</svg>
