<?xml version="1.0" encoding="UTF-8" standalone="no"?>
<!-- Created with Inkscape (http://www.inkscape.org/) -->

<svg
   version="1.1"
   id="svg408"
   width="521"
   height="169"
   viewBox="0 0 260.50001 84.500002"
   xmlns="http://www.w3.org/2000/svg"
   xmlns:svg="http://www.w3.org/2000/svg">
  <defs
     id="defs412" />
  <g
     id="g416"
     transform="scale(1.3333333)">
    <g
       id="g418">
      <path
         d="m 59.977,48.09 c -3,0 -3.688,-1.75 -3.688,-3.621 V 37.77 h 1.559 v 6.582 c 0,1.359 0.441,2.378 2.23,2.378 1.582,0 2.301,-0.691 2.301,-2.589 V 37.77 h 1.531 v 6.25 c 0,2.71 -1.39,4.07 -3.933,4.07"
         style="fill:#171716;fill-opacity:1;fill-rule:nonzero;stroke:none"
         id="path420" />
      <path
         d="M 70.879,47.941 V 43.48 c 0,-0.859 -0.242,-1.359 -1,-1.359 -1,0 -1.813,1.098 -1.813,2.488 v 3.34 h -1.519 v -7 h 1.422 c 0,0.457 -0.031,0.91 -0.102,1.36 0.422,-0.946 1.375,-1.539 2.41,-1.5 1.571,0 2.063,1 2.063,2.222 v 4.848 z"
         style="fill:#171716;fill-opacity:1;fill-rule:nonzero;stroke:none"
         id="path422" />
      <path
         d="m 74.938,41 h 1.5 v 7 h -1.5 z m 0.75,-1 c -0.52,-0.004 -0.938,-0.426 -0.934,-0.945 0.004,-0.465 0.344,-0.86 0.805,-0.926 h 0.129 c 0.515,-0.074 0.992,0.281 1.066,0.793 0.078,0.516 -0.277,0.992 -0.793,1.066 C 75.918,39.996 75.875,40 75.828,40 Z"
         style="fill:#171716;fill-opacity:1;fill-rule:nonzero;stroke:none"
         id="path424" />
      <path
         d="m 82.16,47.941 h -1.472 l -2.598,-7 h 1.598 l 1.289,3.719 c 0.171,0.5 0.32,1 0.453,1.418 0.109,-0.43 0.25,-0.918 0.398,-1.359 l 1.34,-3.731 h 1.602 z"
         style="fill:#171716;fill-opacity:1;fill-rule:nonzero;stroke:none"
         id="path426" />
      <path
         d="m 88.918,41.988 c -0.848,0.02 -1.535,0.703 -1.551,1.551 h 2.93 C 90.406,42.805 89.902,42.117 89.168,42 Z m 2.84,2.571 H 87.34 c 0,1.613 0.668,2.332 2,2.332 0.691,0 1.375,-0.157 2,-0.45 l 0.137,1.188 c -0.762,0.305 -1.579,0.457 -2.399,0.449 -2.16,0 -3.34,-1.117 -3.34,-3.558 0,-2.09 1.141,-3.649 3.16,-3.649 2.02,0 2.829,1.348 2.829,3 0.027,0.227 0.035,0.457 0.031,0.688"
         style="fill:#171716;fill-opacity:1;fill-rule:nonzero;stroke:none"
         id="path428" />
      <path
         d="m 97.449,42.328 c -1.383,-0.25 -2.062,0.711 -2.062,2.793 v 2.82 h -1.489 v -7 h 1.43 c -0.012,0.516 -0.058,1.028 -0.14,1.539 0.226,-1.066 1.218,-1.789 2.3,-1.679 z"
         style="fill:#171716;fill-opacity:1;fill-rule:nonzero;stroke:none"
         id="path430" />
      <path
         d="m 100.418,48.078 c -0.492,0 -0.984,-0.047 -1.469,-0.137 v -1.269 c 0.485,0.14 0.992,0.215 1.5,0.219 0.801,0 1.36,-0.352 1.36,-0.922 0,-1.391 -3,-0.559 -3,-3 0,-1.199 1,-2.141 2.851,-2.141 0.434,0.012 0.867,0.051 1.297,0.121 v 1.223 c -0.441,-0.133 -0.898,-0.199 -1.359,-0.203 -0.821,0 -1.219,0.34 -1.219,0.871 0,1.34 3.07,0.66 3.07,3 -0.019,1.289 -1.199,2.238 -3.031,2.238"
         style="fill:#171716;fill-opacity:1;fill-rule:nonzero;stroke:none"
         id="path432" />
      <path
         d="m 105.559,41 h 1.5 v 7 h -1.5 z m 0.75,-1 c -0.52,-0.004 -0.938,-0.426 -0.934,-0.945 0.004,-0.465 0.344,-0.86 0.805,-0.926 h 0.129 c 0.515,-0.074 0.992,0.281 1.066,0.793 0.074,0.516 -0.281,0.992 -0.793,1.066 -0.043,0.008 -0.09,0.012 -0.133,0.012 z"
         style="fill:#171716;fill-opacity:1;fill-rule:nonzero;stroke:none"
         id="path434" />
      <path
         d="m 112.137,48.059 c -1.489,0 -1.918,-0.559 -1.918,-2.079 v -3.699 h -1.321 v -1.133 h 1.321 V 39 l 1.488,-0.398 v 2.558 h 1.832 v 1.129 h -1.851 v 3.25 c 0,1 0.21,1.289 0.91,1.289 0.304,0 0.605,-0.035 0.902,-0.109 v 1.203 c -0.449,0.086 -0.906,0.133 -1.363,0.137"
         style="fill:#171716;fill-opacity:1;fill-rule:nonzero;stroke:none"
         id="path436" />
      <path
         d="m 119.457,39.66 c -0.461,0 -0.84,-0.375 -0.84,-0.84 0,-0.465 0.379,-0.84 0.84,-0.84 0.453,-0.011 0.832,0.348 0.84,0.801 0,0.008 0,0.02 0,0.028 0.008,0.464 -0.363,0.843 -0.828,0.851 -0.004,0 -0.008,0 -0.012,0 m -0.277,5.102 c -2.18,0 -2.653,0.66 -2.653,1.258 -0.004,0.46 0.36,0.839 0.821,0.851 h 0.129 c 1.015,-0.101 1.765,-0.984 1.703,-2 z m -2.492,-5.102 c -0.469,0 -0.848,-0.383 -0.848,-0.851 0,-0.461 0.375,-0.84 0.84,-0.84 0,0 0.004,0 0.008,0 0.464,0 0.839,0.379 0.839,0.84 0,0.464 -0.375,0.839 -0.839,0.839 z m 2.55,8.281 c -0.008,-0.433 0.016,-0.863 0.071,-1.293 -0.399,0.907 -1.313,1.477 -2.301,1.442 -0.949,0.117 -1.809,-0.559 -1.926,-1.504 -0.012,-0.09 -0.016,-0.18 -0.016,-0.266 0,-1.59 1.594,-2.492 4.082,-2.492 v -0.449 c 0,-0.867 -0.359,-1.309 -1.449,-1.309 -0.711,0.028 -1.398,0.231 -2.011,0.59 l -0.141,-1.269 c 0.781,-0.301 1.605,-0.457 2.441,-0.461 2.121,0 2.711,0.922 2.711,2.34 v 4.718 z"
         style="fill:#171716;fill-opacity:1;fill-rule:nonzero;stroke:none"
         id="path438" />
      <path
         d="m 125.469,48.059 c -1.5,0 -1.922,-0.559 -1.922,-2.079 v -3.699 h -1.328 v -1.133 h 1.328 V 39 l 1.492,-0.398 v 2.558 h 1.828 v 1.129 h -1.82 v 3.25 c 0,1 0.211,1.289 0.91,1.289 0.309,0 0.613,-0.039 0.91,-0.109 v 1.203 c -0.461,0.09 -0.929,0.137 -1.398,0.137"
         style="fill:#171716;fill-opacity:1;fill-rule:nonzero;stroke:none"
         id="path440" />
      <path
         d="m 140.879,47.941 v -4.57 h -4.582 v 4.559 h -1.609 V 37.77 h 1.57 v 4.218 h 4.582 V 37.77 h 1.547 v 10.171 z"
         style="fill:#171716;fill-opacity:1;fill-rule:nonzero;stroke:none"
         id="path442" />
      <path
         d="m 149.25,44.801 c -2.184,0 -2.652,0.66 -2.652,1.258 -0.004,0.461 0.359,0.839 0.82,0.851 h 0.121 c 1.016,-0.094 1.773,-0.98 1.711,-2 z m 0.098,3.14 c -0.012,-0.433 0.011,-0.863 0.07,-1.293 -0.406,0.907 -1.32,1.477 -2.309,1.442 -0.945,0.117 -1.804,-0.555 -1.918,-1.496 -0.011,-0.09 -0.015,-0.184 -0.011,-0.274 0,-1.59 1.59,-2.492 4.078,-2.492 v -0.449 c 0,-0.867 -0.36,-1.309 -1.449,-1.309 -0.723,0.008 -1.434,0.203 -2.059,0.559 l -0.141,-1.27 c 0.778,-0.3 1.606,-0.457 2.438,-0.461 2.121,0 2.703,0.922 2.703,2.34 v 4.723 z"
         style="fill:#171716;fill-opacity:1;fill-rule:nonzero;stroke:none"
         id="path444" />
      <path
         d="M 162,47.941 V 43.52 c 0,-0.872 -0.211,-1.411 -1,-1.411 -0.793,0 -1.781,1 -1.781,2.493 v 3.308 h -1.461 v -4.43 c 0,-0.781 -0.16,-1.39 -1,-1.39 -0.84,0 -1.77,1.058 -1.77,2.488 v 3.313 h -1.5 v -6.903 h 1.43 c -0.004,0.457 -0.035,0.91 -0.102,1.364 0.403,-0.93 1.329,-1.524 2.344,-1.5 0.934,-0.086 1.774,0.57 1.918,1.5 0.402,-0.922 1.317,-1.512 2.32,-1.5 1.321,0 2.059,0.718 2.059,2.289 v 4.781 z"
         style="fill:#171716;fill-opacity:1;fill-rule:nonzero;stroke:none"
         id="path446" />
      <path
         d="m 169.297,42.109 c -1.117,0 -1.719,1.289 -1.719,2.493 v 2.136 c 0.352,0.11 0.723,0.157 1.09,0.141 1.18,0 2,-0.719 2,-2.59 0.02,-1.418 -0.441,-2.18 -1.371,-2.18 m -0.738,5.942 c -0.84,0.011 -1.676,-0.09 -2.493,-0.301 v -10 h 1.493 v 3.191 c 0.003,0.446 -0.036,0.891 -0.121,1.329 0.374,-0.879 1.246,-1.438 2.199,-1.411 1.652,0 2.551,1.172 2.551,3.262 0.05,2.41 -1.34,3.93 -3.629,3.93"
         style="fill:#171716;fill-opacity:1;fill-rule:nonzero;stroke:none"
         id="path448" />
      <path
         d="m 178.949,47.941 c 0.004,-0.457 0.035,-0.91 0.098,-1.363 -0.418,0.949 -1.375,1.543 -2.41,1.5 -1.571,0 -2.059,-1 -2.059,-2.219 v -4.871 h 1.5 v 4.481 c 0,0.871 0.238,1.371 1,1.371 1,0 1.809,-1.102 1.809,-2.488 v -3.364 h 1.492 v 7 z"
         style="fill:#171716;fill-opacity:1;fill-rule:nonzero;stroke:none"
         id="path450" />
      <path
         d="m 186.93,42.328 c -1.383,-0.25 -2.051,0.711 -2.051,2.793 v 2.82 h -1.492 v -7 h 1.422 c -0.004,0.516 -0.047,1.032 -0.141,1.539 0.234,-1.058 1.219,-1.781 2.301,-1.679 z"
         style="fill:#171716;fill-opacity:1;fill-rule:nonzero;stroke:none"
         id="path452" />
      <path
         d="m 191.848,41.988 c -0.778,-0.086 -1.481,0.473 -1.571,1.25 -0.004,0.071 -0.004,0.133 0,0.203 0,0.899 0.551,1.43 1.563,1.43 1.008,0 1.547,-0.5 1.547,-1.422 0.051,-0.758 -0.52,-1.418 -1.278,-1.469 z m 0.711,6.063 h -1.672 c -0.446,0.215 -0.742,0.652 -0.77,1.148 0,0.742 0.699,1.16 1.699,1.16 1.301,0 2,-0.558 2,-1.308 0,-0.59 -0.429,-1 -1.296,-1 z m -1,3.449 c -1.821,0 -3,-0.691 -3,-2 0.015,-0.746 0.449,-1.422 1.121,-1.75 -0.403,-0.176 -0.668,-0.562 -0.68,-1 0.004,-0.516 0.312,-0.977 0.789,-1.18 -0.668,-0.414 -1.055,-1.164 -1,-1.949 0,-1.473 1.121,-2.691 3.098,-2.691 0.386,0.004 0.769,0.05 1.14,0.14 h 2.34 v 1.168 h -1.058 c 0.336,0.285 0.519,0.711 0.5,1.153 0,1.5 -1,2.57 -3,2.57 -0.266,-0.004 -0.532,-0.027 -0.789,-0.07 -0.227,0.066 -0.391,0.265 -0.411,0.5 0,0.339 0.309,0.488 1.149,0.488 h 1.18 c 1.492,0 2.351,0.723 2.351,2 0.008,1.441 -1.5,2.621 -3.73,2.621"
         style="fill:#171716;fill-opacity:1;fill-rule:nonzero;stroke:none"
         id="path454" />
      <path
         d="M 0.199,0 H 47.988 V 47.781 H 0.199 Z"
         style="fill:#000000;fill-opacity:1;fill-rule:nonzero;stroke:none"
         id="path456" />
      <path
         d="m 30.918,28.32 h 0.68 l -0.34,-0.59 0.34,-0.589 h -0.68 l -0.34,-0.59 -0.34,0.59 h -0.691 l 0.351,0.589 -0.351,0.59 h 0.691 l 0.34,0.59 z"
         style="fill:#ffffff;fill-opacity:1;fill-rule:nonzero;stroke:none"
         id="path458" />
      <path
         d="m 41.598,28.32 h 0.691 l -0.351,-0.59 0.351,-0.589 h -0.691 l -0.34,-0.59 -0.34,0.59 h -0.68 l 0.34,0.589 -0.34,0.59 h 0.68 l 0.34,0.59 z"
         style="fill:#ffffff;fill-opacity:1;fill-rule:nonzero;stroke:none"
         id="path460" />
      <path
         d="m 34.039,28.59 v 0.129 h -0.75 v 0.871 h 0.848 v 5.48 h -2 v -5.351 h -3.18 v 5.332 h -1.059 v 0.898 h 16 v -0.898 h -1.031 v -5.332 h -3.179 v 5.332 h -2 V 29.57 h 0.82 v -0.851 h -0.75 c 0.058,-0.942 -0.57,-1.785 -1.488,-2 v -0.938 h 0.699 v -0.652 h -0.68 v -0.77 H 35.52 v 0.813 h -0.704 v 0.648 h 0.704 v 1 c -0.868,0.18 -1.493,0.946 -1.493,1.828 z"
         style="fill:#ffffff;fill-opacity:1;fill-rule:nonzero;stroke:none"
         id="path462" />
      <path
         d="m 35.918,39.66 c -1.184,0 -2.141,0.957 -2.141,2.141 v 3.59 h -6.769 c 1.019,-2.743 1.652,-5.614 1.871,-8.532 h 14.07 c 0.219,2.918 0.848,5.789 1.867,8.532 H 38.09 v -3.59 c 0,-1.184 -0.961,-2.141 -2.141,-2.141 -0.015,0 -0.027,0 -0.039,0 z"
         style="fill:#ffffff;fill-opacity:1;fill-rule:nonzero;stroke:none"
         id="path464" />
      <path
         d="m 21,15.602 h -1.902 v -5.383 h -5.621 v 1.242 c 0,2.699 -1.59,4.32 -4.707,4.32 -3.122,0 -4.711,-1.5 -4.711,-4.261 V 3.66 H 6 v 7.5 c 0,1.93 0.668,3.051 2.789,3.051 2.121,0 2.801,-1.109 2.801,-3.051 v -7.5 h 1.887 v 5 h 5.621 v -5 h 1.922 v 5 h 5.668 v -5 h 1.921 v 12 H 26.688 V 10.219 H 21 Z"
         style="fill:#ffffff;fill-opacity:1;fill-rule:nonzero;stroke:none"
         id="path466" />
      <path
         d="m 1.887,57.469 c -0.235,-0.016 -0.473,-0.016 -0.707,0 v 4.101 c 0.211,0.016 0.425,0.016 0.636,0 1.028,0.086 1.926,-0.675 2.012,-1.699 C 3.84,59.742 3.836,59.609 3.816,59.48 3.77,58.211 3.258,57.422 1.879,57.422 Z M 1.688,62.66 H 0 v -6.07 h 2 c 1.879,0 3.078,0.832 3.078,3 0,2.172 -1.39,3.07 -3.39,3.07"
         style="fill:#171716;fill-opacity:1;fill-rule:nonzero;stroke:none"
         id="path468" />
      <path
         d="m 6.09,62.578 v -6.09 h 3.308 v 1 h -2.14 v 1.492 h 2 v 0.93 h -2 v 1.649 h 2.14 v 1 z"
         style="fill:#171716;fill-opacity:1;fill-rule:nonzero;stroke:none"
         id="path470" />
      <path
         d="m 12.258,57.422 c -0.153,-0.012 -0.305,-0.012 -0.461,0 v 1.758 h 0.422 c 0.711,0 1.14,-0.36 1.14,-0.93 0,-0.57 -0.359,-0.828 -1.101,-0.828 m 1.281,5.156 -1.699,-2.488 v 2.488 h -1.152 v -6.09 h 1.75 c 1.339,0 2.199,0.473 2.199,1.711 0,0.879 -0.672,1.613 -1.547,1.692 l 0.5,0.668 1.457,2 z"
         style="fill:#171716;fill-opacity:1;fill-rule:nonzero;stroke:none"
         id="path472" />
      <path
         d="m 20.387,57.512 v 1.558 h 2 v 1 h -2 v 2.551 h -1.16 v -6 h 3.23 v 1 z"
         style="fill:#171716;fill-opacity:1;fill-rule:nonzero;stroke:none"
         id="path474" />
      <path
         d="m 26.02,57.461 c -0.832,0 -1.602,0.66 -1.602,2 0,1.34 0.5,2.117 1.59,2.117 0.789,0 1.629,-0.609 1.629,-2.058 0,-1.45 -0.571,-2.04 -1.617,-2.04 z m -0.09,5.199 c -1.852,0 -2.762,-1.18 -2.762,-3.051 -0.109,-1.652 1.141,-3.082 2.793,-3.191 0.07,-0.008 0.137,-0.008 0.207,-0.008 1.621,0 2.75,1 2.75,3 0.187,1.598 -0.953,3.043 -2.547,3.231 -0.148,0.019 -0.293,0.023 -0.441,0.019"
         style="fill:#171716;fill-opacity:1;fill-rule:nonzero;stroke:none"
         id="path476" />
      <path
         d="M 31.547,57.422 H 31.09 v 1.75 h 0.43 c 0.687,0 1.128,-0.363 1.128,-0.934 0,-0.566 -0.351,-0.816 -1.101,-0.816 m 1.293,5.156 -1.692,-2.488 h -0.05 v 2.488 h -1.16 v -6 h 1.742 c 1.328,0 2.187,0.473 2.187,1.703 0,0.875 -0.668,1.606 -1.539,1.688 l 0.5,0.66 1.449,2 z"
         style="fill:#171716;fill-opacity:1;fill-rule:nonzero;stroke:none"
         id="path478" />
      <path
         d="m 36.258,62.66 c -0.418,0 -0.832,-0.051 -1.238,-0.148 l 0.07,-1.082 c 0.41,0.129 0.836,0.199 1.269,0.211 0.59,0 1,-0.243 1,-0.801 0,-1.149 -2.543,-0.621 -2.543,-2.621 0,-1.071 0.852,-1.821 2.301,-1.821 0.371,0.012 0.738,0.051 1.102,0.114 l -0.071,1 c -0.351,-0.102 -0.714,-0.153 -1.082,-0.16 -0.668,0 -1,0.308 -1,0.738 0,1.09 2.551,0.68 2.551,2.57 0.071,1.18 -0.879,2 -2.359,2"
         style="fill:#171716;fill-opacity:1;fill-rule:nonzero;stroke:none"
         id="path480" />
      <path
         d="m 42.289,62.66 c -1.426,0.129 -2.684,-0.922 -2.812,-2.348 -0.016,-0.191 -0.012,-0.382 0.011,-0.574 0,-1.91 1,-3.258 3,-3.258 0.434,-0.003 0.864,0.051 1.282,0.161 l -0.082,1.019 c -0.395,-0.121 -0.805,-0.18 -1.219,-0.18 -1.129,0 -1.68,0.848 -1.68,2 0,1.149 0.539,2.059 1.758,2.059 0.406,-0.012 0.805,-0.094 1.18,-0.25 l 0.14,1.051 c -0.504,0.195 -1.039,0.301 -1.578,0.32"
         style="fill:#171716;fill-opacity:1;fill-rule:nonzero;stroke:none"
         id="path482" />
      <path
         d="m 48.777,62.578 v -2.629 h -2.57 v 2.629 h -1.16 v -6 h 1.16 V 59 h 2.57 v -2.422 h 1.161 v 6 z"
         style="fill:#171716;fill-opacity:1;fill-rule:nonzero;stroke:none"
         id="path484" />
      <path
         d="m 53.828,62.66 c -1.91,0 -2.34,-1 -2.34,-2.199 v -3.949 h 1.2 v 3.879 c 0,0.757 0.25,1.3 1.25,1.3 1,0 1.281,-0.382 1.281,-1.41 v -3.769 h 1.148 v 3.699 c 0.156,1.203 -0.695,2.305 -1.902,2.461 -0.211,0.027 -0.426,0.023 -0.637,-0.012"
         style="fill:#171716;fill-opacity:1;fill-rule:nonzero;stroke:none"
         id="path486" />
      <path
         d="M 61.359,62.578 59.59,59.52 c -0.242,-0.418 -0.461,-0.86 -0.66,-1.301 0,0.5 0.058,1.492 0.058,2.203 v 2.156 h -1.129 v -6 h 1.489 l 1.691,2.883 c 0.277,0.469 0.5,1 0.738,1.43 0,-0.61 -0.058,-1.68 -0.058,-2.43 v -1.883 h 1.129 v 6 z"
         style="fill:#171716;fill-opacity:1;fill-rule:nonzero;stroke:none"
         id="path488" />
      <path
         d="m 68.887,57.781 c -0.508,-0.199 -1.051,-0.301 -1.598,-0.301 -1.062,-0.035 -1.965,0.762 -2.062,1.821 -0.004,0.094 -0.004,0.187 0,0.277 -0.106,0.996 0.613,1.887 1.609,1.996 0.102,0.012 0.207,0.012 0.312,0.004 0.266,0.008 0.528,-0.031 0.782,-0.109 v -2.098 h 1.16 v 2.891 c -0.66,0.254 -1.363,0.383 -2.07,0.379 -1.528,0.16 -2.895,-0.95 -3.055,-2.477 -0.02,-0.172 -0.024,-0.348 -0.008,-0.523 -0.055,-1.746 1.316,-3.203 3.063,-3.258 0.109,-0.004 0.218,0 0.328,0.008 0.582,0 1.164,0.089 1.718,0.257 z"
         style="fill:#171716;fill-opacity:1;fill-rule:nonzero;stroke:none"
         id="path490" />
      <path
         d="m 75.688,56.32 h 0.832 v 7 h -0.832 z"
         style="fill:#171716;fill-opacity:1;fill-rule:nonzero;stroke:none"
         id="path492" />
      <path
         d="m 84.949,57.52 h -0.711 v 4.082 c 0.211,0.031 0.426,0.046 0.641,0.046 1.012,0.098 1.91,-0.64 2.008,-1.652 0.015,-0.144 0.011,-0.293 -0.008,-0.437 -0.039,-1.321 -0.563,-2.09 -1.93,-2.09 z m -0.191,5.14 h -1.692 v -6 h 2 c 1.872,0 3.071,0.828 3.071,3 0,2.168 -1.449,3 -3.379,3"
         style="fill:#171716;fill-opacity:1;fill-rule:nonzero;stroke:none"
         id="path494" />
      <path
         d="m 89.137,62.578 v -6 h 3.293 v 1 h -2.133 v 1.5 h 2 v 1 h -2 v 1.582 h 2.133 v 1 z"
         style="fill:#171716;fill-opacity:1;fill-rule:nonzero;stroke:none"
         id="path496" />
      <path
         d="m 95.277,57.422 c -0.152,-0.012 -0.304,-0.012 -0.461,0 v 1.75 h 0.434 c 0.688,0 1.129,-0.363 1.129,-0.934 0,-0.566 -0.371,-0.816 -1.102,-0.816 m 1.262,5.156 -1.68,-2.488 v 2.488 h -1.171 v -6 h 1.73 c 1.34,0 2.199,0.473 2.199,1.703 0,0.875 -0.668,1.606 -1.539,1.688 l 0.488,0.66 1.461,2 z"
         style="fill:#171716;fill-opacity:1;fill-rule:nonzero;stroke:none"
         id="path498" />
      <path
         d="m 102.207,62.578 v -6 h 1.172 v 5 h 2 v 1 z"
         style="fill:#171716;fill-opacity:1;fill-rule:nonzero;stroke:none"
         id="path500" />
      <path
         d="m 106.188,62.578 v -6 h 3.289 v 1 h -2.129 v 1.5 h 2 v 1 h -2 v 1.582 h 2.129 v 1 z"
         style="fill:#171716;fill-opacity:1;fill-rule:nonzero;stroke:none"
         id="path502" />
      <path
         d="m 114.469,62.578 v -2.629 h -2.571 v 2.629 h -1.16 v -6 h 1.16 V 59 h 2.571 v -2.422 h 1.16 v 6 z"
         style="fill:#171716;fill-opacity:1;fill-rule:nonzero;stroke:none"
         id="path504" />
      <path
         d="m 118.828,57.422 c -0.152,-0.012 -0.308,-0.012 -0.461,0 v 1.75 h 0.422 c 0.699,0 1.129,-0.363 1.129,-0.934 0,-0.566 -0.359,-0.816 -1.09,-0.816 m 1.27,5.156 -1.68,-2.488 v 2.488 h -1.23 v -6 h 1.73 c 1.34,0 2.199,0.473 2.199,1.703 0,0.875 -0.668,1.606 -1.539,1.688 l 0.488,0.66 1.461,2 z"
         style="fill:#171716;fill-opacity:1;fill-rule:nonzero;stroke:none"
         id="path506" />
      <path
         d="m 122.477,62.578 v -6 h 3.293 v 1 h -2.082 v 1.5 h 2 v 1 h -2 v 1.582 h 2.128 v 1 z"
         style="fill:#171716;fill-opacity:1;fill-rule:nonzero;stroke:none"
         id="path508" />
      <path
         d="m 132.297,56.32 h 0.82 v 7 h -0.82 z"
         style="fill:#171716;fill-opacity:1;fill-rule:nonzero;stroke:none"
         id="path510" />
      <path
         d="m 141.379,57.52 h -0.711 v 4.082 c 0.211,0.031 0.426,0.046 0.641,0.046 1.011,0.098 1.91,-0.64 2.007,-1.652 0.016,-0.144 0.012,-0.293 -0.007,-0.437 -0.039,-1.321 -0.551,-2.09 -1.93,-2.09 z m -0.191,5.14 h -1.68 v -6 h 2 c 1.879,0 3.07,0.828 3.07,3 0,2.168 -1.418,3 -3.39,3"
         style="fill:#171716;fill-opacity:1;fill-rule:nonzero;stroke:none"
         id="path512" />
      <path
         d="m 145.566,62.578 v -6 h 3.293 v 1 h -2.171 v 1.5 h 2 v 1 h -2 v 1.582 h 2.128 v 1 z"
         style="fill:#171716;fill-opacity:1;fill-rule:nonzero;stroke:none"
         id="path514" />
      <path
         d="m 151.688,57.422 c -0.153,-0.012 -0.305,-0.012 -0.461,0 v 1.75 h 0.461 c 0.699,0 1.128,-0.363 1.128,-0.934 0,-0.566 -0.378,-0.816 -1.128,-0.816 m 1.289,5.156 -1.688,-2.488 v 2.488 h -1.172 v -6 h 1.742 c 1.329,0 2.2,0.473 2.2,1.703 -0.008,0.875 -0.676,1.606 -1.551,1.688 l 0.5,0.66 1.449,2 z"
         style="fill:#171716;fill-opacity:1;fill-rule:nonzero;stroke:none"
         id="path516" />
      <path
         d="m 160.328,59.91 h -0.488 v 1.75 h 0.629 c 0.758,0 1.148,-0.359 1.148,-0.91 0,-0.551 -0.539,-0.82 -1.308,-0.82 z m 0.172,-2.488 h -0.684 V 59 h 0.5 c 0.801,0 1.211,-0.32 1.211,-0.859 0,-0.539 -0.308,-0.719 -1.027,-0.719 z m -0.102,5.18 h -1.71 v -6.071 h 2 c 1.312,0 2,0.52 2,1.489 -0.024,0.613 -0.422,1.144 -1,1.351 0.64,0.129 1.093,0.703 1.07,1.359 0.07,0.86 -0.52,1.872 -2.36,1.872"
         style="fill:#171716;fill-opacity:1;fill-rule:nonzero;stroke:none"
         id="path518" />
      <path
         d="m 164.039,56.578 h 1.168 v 6 h -1.168 z"
         style="fill:#171716;fill-opacity:1;fill-rule:nonzero;stroke:none"
         id="path520" />
      <path
         d="m 166.77,62.578 v -6 h 1.16 v 5 h 2 v 1 z"
         style="fill:#171716;fill-opacity:1;fill-rule:nonzero;stroke:none"
         id="path522" />
      <path
         d="m 172.637,57.52 h -0.707 v 4.082 c 0.211,0.031 0.425,0.046 0.636,0.046 1.012,0.098 1.914,-0.64 2.012,-1.652 0.016,-0.144 0.012,-0.293 -0.012,-0.437 0,-1.289 -0.527,-2.059 -1.906,-2.059 z m -0.188,5.14 h -1.679 v -6 h 1.949 c 1.871,0 3.07,0.828 3.07,3 0,2.168 -1.391,3 -3.34,3"
         style="fill:#171716;fill-opacity:1;fill-rule:nonzero;stroke:none"
         id="path524" />
      <path
         d="m 179.199,62.66 c -1.91,0 -2.34,-1 -2.34,-2.199 v -3.949 h 1.161 v 3.879 c 0,0.757 0.25,1.3 1.257,1.3 1.012,0 1.27,-0.382 1.27,-1.41 v -3.769 h 1.141 v 3.699 c 0.144,1.211 -0.723,2.309 -1.934,2.453 -0.184,0.024 -0.371,0.02 -0.555,-0.004"
         style="fill:#171716;fill-opacity:1;fill-rule:nonzero;stroke:none"
         id="path526" />
      <path
         d="M 186.688,62.578 184.91,59.52 c -0.242,-0.422 -0.461,-0.856 -0.652,-1.301 v 4.359 h -1.129 v -6 h 1.559 l 1.679,2.883 c 0.281,0.469 0.5,1 0.742,1.43 0,-0.61 -0.062,-1.68 -0.062,-2.43 v -1.883 h 1.133 v 6 z"
         style="fill:#171716;fill-opacity:1;fill-rule:nonzero;stroke:none"
         id="path528" />
      <path
         d="m 194.227,57.781 c -0.508,-0.199 -1.051,-0.301 -1.598,-0.301 -1.067,-0.07 -1.981,0.739 -2.051,1.801 0,0.008 0,0.012 0,0.02 -0.012,0.094 -0.012,0.187 0,0.277 -0.109,0.996 0.61,1.891 1.606,1.996 0.109,0.012 0.214,0.016 0.324,0.004 0.262,0.004 0.519,-0.031 0.769,-0.109 v -2.098 h 1.161 v 2.891 c -0.661,0.254 -1.36,0.383 -2.071,0.379 -1.527,0.156 -2.89,-0.957 -3.043,-2.489 -0.019,-0.168 -0.019,-0.34 -0.008,-0.511 -0.05,-1.746 1.317,-3.203 3.063,-3.258 0.109,-0.004 0.219,0 0.328,0.008 0.582,0 1.156,0.089 1.711,0.257 z"
         style="fill:#171716;fill-opacity:1;fill-rule:nonzero;stroke:none"
         id="path530" />
    </g>
  </g>
</svg>
