<?xml version="1.0" encoding="UTF-8" standalone="no"?>
<!-- Created with Inkscape (http://www.inkscape.org/) -->

<svg
   version="1.1"
   id="svg132"
   width="561.40619"
   height="226.15106"
   viewBox="0 0 561.40619 226.15106"
   xmlns="http://www.w3.org/2000/svg"
   xmlns:svg="http://www.w3.org/2000/svg">
  <defs
     id="defs136" />
  <g
     id="g140"
     transform="matrix(1.3333333,0,0,1.3333333,0,2.9871099e-6)">
    <g
       id="g142">
      <path
         d="M 84.809,2.23 C 62.75,2.23 42.016,10.82 26.418,26.418 10.824,42.012 2.234,62.75 2.234,84.805 c 0,22.058 8.59,42.793 24.184,58.39 15.598,15.598 36.332,24.188 58.391,24.188 22.058,0 42.793,-8.59 58.39,-24.188 15.594,-15.597 24.184,-36.332 24.184,-58.39 0,-22.055 -8.59,-42.793 -24.184,-58.387 C 127.602,10.82 106.867,2.23 84.809,2.23 m 0,167.383 c -22.653,0 -43.95,-8.82 -59.969,-24.84 C 8.824,128.758 0,107.461 0,84.805 0,62.152 8.824,40.855 24.84,24.84 40.859,8.82 62.156,0 84.809,0 c 22.652,0 43.949,8.82 59.968,24.84 16.016,16.015 24.84,37.312 24.84,59.965 0,22.656 -8.824,43.953 -24.84,59.968 -16.019,16.02 -37.316,24.84 -59.968,24.84"
         style="fill:#000000;fill-opacity:1;fill-rule:nonzero;stroke:none"
         id="path144" />
      <path
         d="m 84.809,12.691 c -19.262,0 -37.371,7.504 -50.993,21.121 -13.621,13.622 -21.121,31.731 -21.121,50.993 0,19.265 7.5,37.375 21.121,50.992 13.622,13.625 31.731,21.125 50.993,21.125 19.261,0 37.371,-7.5 50.992,-21.125 13.621,-13.617 21.121,-31.727 21.121,-50.992 0,-19.262 -7.5,-37.371 -21.121,-50.993 C 122.18,20.195 104.07,12.691 84.809,12.691 m 0,146.461 c -19.86,0 -38.528,-7.73 -52.571,-21.773 -14.043,-14.043 -21.777,-32.715 -21.777,-52.574 0,-19.856 7.734,-38.528 21.777,-52.567 14.043,-14.043 32.711,-21.777 52.571,-21.777 19.859,0 38.527,7.734 52.57,21.777 14.043,14.039 21.777,32.711 21.777,52.567 0,19.859 -7.734,38.531 -21.777,52.574 -14.043,14.043 -32.711,21.773 -52.57,21.773"
         style="fill:#000000;fill-opacity:1;fill-rule:nonzero;stroke:none"
         id="path146" />
      <path
         d="m 44.156,95.254 c -0.613,0 -1.113,-0.5 -1.113,-1.117 V 58.805 c 0,-0.617 0.5,-1.117 1.113,-1.117 0.617,0 1.117,0.5 1.117,1.117 v 35.332 c 0,0.617 -0.5,1.117 -1.117,1.117"
         style="fill:#000000;fill-opacity:1;fill-rule:nonzero;stroke:none"
         id="path148" />
      <path
         d="m 49.766,94.398 c -0.618,0 -1.118,-0.5 -1.118,-1.117 V 56.895 c 0,-0.618 0.5,-1.114 1.118,-1.114 0.617,0 1.113,0.496 1.113,1.114 v 36.386 c 0,0.617 -0.496,1.117 -1.113,1.117"
         style="fill:#000000;fill-opacity:1;fill-rule:nonzero;stroke:none"
         id="path150" />
      <path
         d="m 56.773,93.836 c -0.617,0 -1.113,-0.5 -1.113,-1.117 V 55.594 c 0,-0.617 0.496,-1.117 1.113,-1.117 0.618,0 1.118,0.5 1.118,1.117 v 37.125 c 0,0.617 -0.5,1.117 -1.118,1.117"
         style="fill:#000000;fill-opacity:1;fill-rule:nonzero;stroke:none"
         id="path152" />
      <path
         d="m 65.184,93.453 c -0.614,0 -1.114,-0.5 -1.114,-1.117 V 54.672 c 0,-0.617 0.5,-1.117 1.114,-1.117 0.617,0 1.117,0.5 1.117,1.117 v 37.664 c 0,0.617 -0.5,1.117 -1.117,1.117"
         style="fill:#000000;fill-opacity:1;fill-rule:nonzero;stroke:none"
         id="path154" />
      <path
         d="m 72.195,93.273 c -0.617,0 -1.117,-0.5 -1.117,-1.113 V 54.215 c 0,-0.617 0.5,-1.117 1.117,-1.117 0.614,0 1.114,0.5 1.114,1.117 V 92.16 c 0,0.613 -0.5,1.113 -1.114,1.113"
         style="fill:#000000;fill-opacity:1;fill-rule:nonzero;stroke:none"
         id="path156" />
      <path
         d="m 80.602,93.164 c -0.614,0 -1.114,-0.5 -1.114,-1.117 V 53.918 c 0,-0.617 0.5,-1.117 1.114,-1.117 0.617,0 1.117,0.5 1.117,1.117 v 38.129 c 0,0.617 -0.5,1.117 -1.117,1.117"
         style="fill:#000000;fill-opacity:1;fill-rule:nonzero;stroke:none"
         id="path158" />
      <path
         d="m 44.156,120.543 c -0.613,0 -1.113,-0.5 -1.113,-1.113 V 99.195 c 0,-0.617 0.5,-1.117 1.113,-1.117 0.617,0 1.117,0.5 1.117,1.117 v 20.235 c 0,0.613 -0.5,1.113 -1.117,1.113"
         style="fill:#000000;fill-opacity:1;fill-rule:nonzero;stroke:none"
         id="path160" />
      <path
         d="m 49.766,120.543 c -0.618,0 -1.118,-0.5 -1.118,-1.113 V 98.34 c 0,-0.617 0.5,-1.117 1.118,-1.117 0.617,0 1.113,0.5 1.113,1.117 v 21.09 c 0,0.613 -0.496,1.113 -1.113,1.113"
         style="fill:#000000;fill-opacity:1;fill-rule:nonzero;stroke:none"
         id="path162" />
      <path
         d="m 58.176,120.543 c -0.617,0 -1.117,-0.5 -1.117,-1.113 V 97.691 c 0,-0.617 0.5,-1.117 1.117,-1.117 0.617,0 1.113,0.5 1.113,1.117 v 21.739 c 0,0.613 -0.496,1.113 -1.113,1.113"
         style="fill:#000000;fill-opacity:1;fill-rule:nonzero;stroke:none"
         id="path164" />
      <path
         d="m 63.781,120.543 c -0.613,0 -1.113,-0.5 -1.113,-1.113 V 97.445 c 0,-0.617 0.5,-1.117 1.113,-1.117 0.617,0 1.117,0.5 1.117,1.117 v 21.985 c 0,0.613 -0.5,1.113 -1.117,1.113"
         style="fill:#000000;fill-opacity:1;fill-rule:nonzero;stroke:none"
         id="path166" />
      <path
         d="m 73.594,120.543 c -0.614,0 -1.114,-0.5 -1.114,-1.113 V 97.191 c 0,-0.617 0.5,-1.117 1.114,-1.117 0.617,0 1.117,0.5 1.117,1.117 v 22.239 c 0,0.613 -0.5,1.113 -1.117,1.113"
         style="fill:#000000;fill-opacity:1;fill-rule:nonzero;stroke:none"
         id="path168" />
      <path
         d="m 79.203,120.543 c -0.617,0 -1.117,-0.5 -1.117,-1.113 V 97.125 c 0,-0.617 0.5,-1.113 1.117,-1.113 0.613,0 1.113,0.496 1.113,1.113 v 22.305 c 0,0.613 -0.5,1.113 -1.113,1.113"
         style="fill:#000000;fill-opacity:1;fill-rule:nonzero;stroke:none"
         id="path170" />
      <path
         d="M 49.766,120.543 H 44.16 c -0.617,0 -1.117,-0.5 -1.117,-1.113 0,-0.618 0.5,-1.118 1.117,-1.118 h 5.606 c 0.617,0 1.113,0.5 1.113,1.118 0,0.613 -0.496,1.113 -1.113,1.113"
         style="fill:#000000;fill-opacity:1;fill-rule:nonzero;stroke:none"
         id="path172" />
      <path
         d="m 63.781,120.543 h -5.605 c -0.617,0 -1.117,-0.5 -1.117,-1.113 0,-0.618 0.5,-1.118 1.117,-1.118 h 5.605 c 0.617,0 1.117,0.5 1.117,1.118 0,0.613 -0.5,1.113 -1.117,1.113"
         style="fill:#000000;fill-opacity:1;fill-rule:nonzero;stroke:none"
         id="path174" />
      <path
         d="m 79.203,120.543 h -5.609 c -0.617,0 -1.117,-0.5 -1.117,-1.113 0,-0.618 0.5,-1.118 1.117,-1.118 h 5.609 c 0.613,0 1.113,0.5 1.113,1.118 0,0.613 -0.5,1.113 -1.113,1.113"
         style="fill:#000000;fill-opacity:1;fill-rule:nonzero;stroke:none"
         id="path176" />
      <path
         d="m 58.176,119.141 h -8.41 c -0.618,0 -1.118,-0.5 -1.118,-1.114 0,-0.617 0.5,-1.117 1.118,-1.117 h 8.41 c 0.617,0 1.113,0.5 1.113,1.117 0,0.614 -0.496,1.114 -1.113,1.114"
         style="fill:#000000;fill-opacity:1;fill-rule:nonzero;stroke:none"
         id="path178" />
      <path
         d="m 73.594,119.141 h -9.813 c -0.617,0 -1.113,-0.5 -1.113,-1.114 0,-0.617 0.496,-1.117 1.113,-1.117 h 9.813 c 0.617,0 1.117,0.5 1.117,1.117 0,0.614 -0.5,1.114 -1.117,1.114"
         style="fill:#000000;fill-opacity:1;fill-rule:nonzero;stroke:none"
         id="path180" />
      <path
         d="m 84.809,119.141 h -5.606 c -0.617,0 -1.117,-0.5 -1.117,-1.114 0,-0.617 0.5,-1.117 1.117,-1.117 h 5.606 c 0.617,0 1.117,0.5 1.117,1.117 0,0.614 -0.5,1.114 -1.117,1.114"
         style="fill:#000000;fill-opacity:1;fill-rule:nonzero;stroke:none"
         id="path182" />
      <path
         d="M 84.816,124.746 H 41.355 c -0.617,0 -1.117,-0.496 -1.117,-1.113 0,-0.617 0.5,-1.117 1.117,-1.117 h 43.461 c 0.614,0 1.114,0.5 1.114,1.117 0,0.617 -0.5,1.113 -1.114,1.113"
         style="fill:#000000;fill-opacity:1;fill-rule:nonzero;stroke:none"
         id="path184" />
      <path
         d="M 84.816,128.953 H 37.148 c -0.613,0 -1.113,-0.5 -1.113,-1.113 0,-0.617 0.5,-1.117 1.113,-1.117 h 47.668 c 0.614,0 1.114,0.5 1.114,1.117 0,0.613 -0.5,1.113 -1.114,1.113"
         style="fill:#000000;fill-opacity:1;fill-rule:nonzero;stroke:none"
         id="path186" />
      <path
         d="m 41.355,56.719 c -0.617,0 -1.117,-0.5 -1.117,-1.117 0,-3.282 4.836,-5.645 14.785,-7.223 7.829,-1.242 18.411,-1.926 29.793,-1.926 0.614,0 1.114,0.5 1.114,1.117 0,0.614 -0.5,1.114 -1.114,1.114 -11.269,0 -21.726,0.675 -29.441,1.898 -12.281,1.953 -12.906,4.523 -12.906,5.02 0,0.617 -0.5,1.117 -1.114,1.117"
         style="fill:#000000;fill-opacity:1;fill-rule:nonzero;stroke:none"
         id="path188" />
      <path
         d="m 41.355,62.508 c -0.617,0 -1.117,-0.496 -1.117,-1.113 0,-3.282 4.836,-5.645 14.785,-7.223 7.829,-1.242 18.411,-1.926 29.793,-1.926 0.614,0 1.114,0.496 1.114,1.113 0,0.618 -0.5,1.118 -1.114,1.118 -11.269,0 -21.726,0.675 -29.441,1.898 -12.281,1.949 -12.906,4.523 -12.906,5.02 0,0.617 -0.5,1.113 -1.114,1.113"
         style="fill:#000000;fill-opacity:1;fill-rule:nonzero;stroke:none"
         id="path190" />
      <path
         d="m 41.355,56.344 c -0.617,0 -1.117,-0.5 -1.117,-1.117 v -5.418 c 0,-3.278 4.836,-5.641 14.785,-7.223 7.829,-1.242 18.411,-1.926 29.793,-1.926 0.614,0 1.114,0.5 1.114,1.117 0,0.614 -0.5,1.114 -1.114,1.114 -11.269,0 -21.726,0.675 -29.441,1.902 -12.281,1.949 -12.906,4.519 -12.906,5.016 v 5.418 c 0,0.617 -0.5,1.117 -1.114,1.117"
         style="fill:#000000;fill-opacity:1;fill-rule:nonzero;stroke:none"
         id="path192" />
      <path
         d="m 41.355,96.715 c -0.617,0 -1.117,-0.5 -1.117,-1.117 0,-1.594 2.082,-2.235 4.332,-2.692 2.192,-0.445 5.387,-0.824 9.496,-1.125 7.586,-0.554 18.219,-0.851 30.743,-0.851 0.617,0 1.117,0.5 1.117,1.117 0,0.617 -0.5,1.117 -1.117,1.117 -30.649,0 -40.981,1.68 -42.375,2.723 -0.129,0.476 -0.563,0.828 -1.079,0.828"
         style="fill:#000000;fill-opacity:1;fill-rule:nonzero;stroke:none"
         id="path194" />
      <path
         d="m 41.355,101.773 c -0.617,0 -1.117,-0.5 -1.117,-1.117 0,-1.594 2.082,-2.234 4.332,-2.691 2.192,-0.445 5.387,-0.824 9.496,-1.125 7.586,-0.555 18.219,-0.852 30.743,-0.852 0.617,0 1.117,0.5 1.117,1.117 0,0.614 -0.5,1.114 -1.117,1.114 -30.649,0 -40.981,1.683 -42.375,2.726 -0.129,0.477 -0.563,0.828 -1.079,0.828"
         style="fill:#000000;fill-opacity:1;fill-rule:nonzero;stroke:none"
         id="path196" />
      <path
         d="m 80.602,75.57 c -0.61,0 -1.106,-0.492 -1.114,-1.105 -0.011,-0.617 0.485,-1.121 1.102,-1.125 1.398,-0.016 2.816,-0.024 4.219,-0.024 0.617,0 1.117,0.496 1.117,1.114 0,0.617 -0.5,1.117 -1.117,1.117 -1.395,0 -2.809,0.008 -4.192,0.023 z"
         style="fill:#000000;fill-opacity:1;fill-rule:nonzero;stroke:none"
         id="path198" />
      <path
         d="m 65.184,76.074 c -0.59,0 -1.079,-0.461 -1.114,-1.054 -0.035,-0.614 0.434,-1.141 1.051,-1.176 2.262,-0.129 4.629,-0.235 7.035,-0.317 0.614,-0.019 1.133,0.461 1.153,1.075 0.019,0.617 -0.461,1.132 -1.079,1.156 -2.39,0.082 -4.738,0.187 -6.984,0.312 -0.019,0.004 -0.043,0.004 -0.062,0.004"
         style="fill:#000000;fill-opacity:1;fill-rule:nonzero;stroke:none"
         id="path200" />
      <path
         d="m 49.766,77.508 c -0.547,0 -1.024,-0.395 -1.106,-0.949 -0.09,-0.61 0.332,-1.18 0.942,-1.27 2.058,-0.301 4.437,-0.582 7.07,-0.824 0.613,-0.059 1.156,0.394 1.211,1.008 0.058,0.613 -0.391,1.156 -1.008,1.215 -2.59,0.238 -4.926,0.511 -6.949,0.808 -0.055,0.008 -0.11,0.012 -0.16,0.012"
         style="fill:#000000;fill-opacity:1;fill-rule:nonzero;stroke:none"
         id="path202" />
      <path
         d="m 80.602,80.629 c -0.61,0 -1.106,-0.492 -1.114,-1.106 -0.011,-0.617 0.485,-1.121 1.102,-1.125 1.39,-0.015 2.812,-0.027 4.219,-0.027 0.617,0 1.117,0.5 1.117,1.117 0,0.617 -0.5,1.117 -1.117,1.117 -1.399,0 -2.809,0.008 -4.192,0.024 z"
         style="fill:#000000;fill-opacity:1;fill-rule:nonzero;stroke:none"
         id="path204" />
      <path
         d="m 65.184,81.129 c -0.59,0 -1.079,-0.457 -1.114,-1.051 -0.035,-0.617 0.434,-1.14 1.051,-1.176 2.262,-0.129 4.629,-0.234 7.035,-0.316 0.614,-0.02 1.133,0.461 1.153,1.074 0.019,0.617 -0.461,1.133 -1.079,1.156 -2.386,0.082 -4.734,0.184 -6.984,0.313 -0.019,0 -0.043,0 -0.062,0"
         style="fill:#000000;fill-opacity:1;fill-rule:nonzero;stroke:none"
         id="path206" />
      <path
         d="m 49.766,82.566 c -0.547,0 -1.024,-0.398 -1.106,-0.953 -0.09,-0.609 0.332,-1.175 0.942,-1.265 2.058,-0.301 4.433,-0.582 7.07,-0.825 0.613,-0.058 1.156,0.395 1.211,1.008 0.058,0.614 -0.391,1.157 -1.008,1.215 -2.59,0.238 -4.93,0.512 -6.949,0.809 -0.055,0.007 -0.11,0.011 -0.16,0.011"
         style="fill:#000000;fill-opacity:1;fill-rule:nonzero;stroke:none"
         id="path208" />
      <path
         d="m 125.461,95.254 c -0.617,0 -1.117,-0.5 -1.117,-1.117 V 58.805 c 0,-0.617 0.5,-1.117 1.117,-1.117 0.613,0 1.113,0.5 1.113,1.117 v 35.332 c 0,0.617 -0.5,1.117 -1.113,1.117"
         style="fill:#000000;fill-opacity:1;fill-rule:nonzero;stroke:none"
         id="path210" />
      <path
         d="m 119.852,94.398 c -0.614,0 -1.114,-0.5 -1.114,-1.117 V 56.895 c 0,-0.618 0.5,-1.114 1.114,-1.114 0.617,0 1.117,0.496 1.117,1.114 v 36.386 c 0,0.617 -0.5,1.117 -1.117,1.117"
         style="fill:#000000;fill-opacity:1;fill-rule:nonzero;stroke:none"
         id="path212" />
      <path
         d="m 112.844,93.836 c -0.617,0 -1.117,-0.5 -1.117,-1.117 V 55.594 c 0,-0.617 0.5,-1.117 1.117,-1.117 0.617,0 1.113,0.5 1.113,1.117 v 37.125 c 0,0.617 -0.496,1.117 -1.113,1.117"
         style="fill:#000000;fill-opacity:1;fill-rule:nonzero;stroke:none"
         id="path214" />
      <path
         d="m 104.434,93.453 c -0.618,0 -1.118,-0.5 -1.118,-1.117 V 54.672 c 0,-0.617 0.5,-1.117 1.118,-1.117 0.613,0 1.113,0.5 1.113,1.117 v 37.664 c 0,0.617 -0.5,1.117 -1.113,1.117"
         style="fill:#000000;fill-opacity:1;fill-rule:nonzero;stroke:none"
         id="path216" />
      <path
         d="m 97.426,93.273 c -0.617,0 -1.117,-0.5 -1.117,-1.113 V 54.215 c 0,-0.617 0.5,-1.117 1.117,-1.117 0.613,0 1.113,0.5 1.113,1.117 V 92.16 c 0,0.613 -0.5,1.113 -1.113,1.113"
         style="fill:#000000;fill-opacity:1;fill-rule:nonzero;stroke:none"
         id="path218" />
      <path
         d="m 89.016,93.164 c -0.618,0 -1.118,-0.5 -1.118,-1.117 V 53.918 c 0,-0.617 0.5,-1.117 1.118,-1.117 0.613,0 1.113,0.5 1.113,1.117 v 38.129 c 0,0.617 -0.5,1.117 -1.113,1.117"
         style="fill:#000000;fill-opacity:1;fill-rule:nonzero;stroke:none"
         id="path220" />
      <path
         d="m 125.461,120.543 c -0.617,0 -1.117,-0.5 -1.117,-1.113 V 99.195 c 0,-0.617 0.5,-1.117 1.117,-1.117 0.613,0 1.113,0.5 1.113,1.117 v 20.235 c 0,0.613 -0.5,1.113 -1.113,1.113"
         style="fill:#000000;fill-opacity:1;fill-rule:nonzero;stroke:none"
         id="path222" />
      <path
         d="m 119.852,120.543 c -0.614,0 -1.114,-0.5 -1.114,-1.113 V 98.34 c 0,-0.617 0.5,-1.117 1.114,-1.117 0.617,0 1.117,0.5 1.117,1.117 v 21.09 c 0,0.613 -0.5,1.113 -1.117,1.113"
         style="fill:#000000;fill-opacity:1;fill-rule:nonzero;stroke:none"
         id="path224" />
      <path
         d="m 111.441,120.543 c -0.617,0 -1.113,-0.5 -1.113,-1.113 V 97.691 c 0,-0.617 0.496,-1.117 1.113,-1.117 0.618,0 1.118,0.5 1.118,1.117 v 21.739 c 0,0.613 -0.5,1.113 -1.118,1.113"
         style="fill:#000000;fill-opacity:1;fill-rule:nonzero;stroke:none"
         id="path226" />
      <path
         d="m 105.836,120.543 c -0.617,0 -1.117,-0.5 -1.117,-1.113 V 97.445 c 0,-0.617 0.5,-1.117 1.117,-1.117 0.613,0 1.113,0.5 1.113,1.117 v 21.985 c 0,0.613 -0.5,1.113 -1.113,1.113"
         style="fill:#000000;fill-opacity:1;fill-rule:nonzero;stroke:none"
         id="path228" />
      <path
         d="m 96.023,120.543 c -0.617,0 -1.117,-0.5 -1.117,-1.113 V 97.191 c 0,-0.617 0.5,-1.117 1.117,-1.117 0.614,0 1.114,0.5 1.114,1.117 v 22.239 c 0,0.613 -0.5,1.113 -1.114,1.113"
         style="fill:#000000;fill-opacity:1;fill-rule:nonzero;stroke:none"
         id="path230" />
      <path
         d="m 90.414,120.543 c -0.613,0 -1.113,-0.5 -1.113,-1.113 V 97.125 c 0,-0.617 0.5,-1.113 1.113,-1.113 0.617,0 1.117,0.496 1.117,1.113 v 22.305 c 0,0.613 -0.5,1.113 -1.117,1.113"
         style="fill:#000000;fill-opacity:1;fill-rule:nonzero;stroke:none"
         id="path232" />
      <path
         d="m 125.461,120.543 h -5.609 c -0.618,0 -1.118,-0.5 -1.118,-1.113 0,-0.618 0.5,-1.118 1.118,-1.118 h 5.609 c 0.613,0 1.113,0.5 1.113,1.118 0,0.613 -0.5,1.113 -1.113,1.113"
         style="fill:#000000;fill-opacity:1;fill-rule:nonzero;stroke:none"
         id="path234" />
      <path
         d="m 111.441,120.543 h -5.605 c -0.617,0 -1.117,-0.5 -1.117,-1.113 0,-0.618 0.5,-1.118 1.117,-1.118 h 5.605 c 0.618,0 1.118,0.5 1.118,1.118 0,0.613 -0.5,1.113 -1.118,1.113"
         style="fill:#000000;fill-opacity:1;fill-rule:nonzero;stroke:none"
         id="path236" />
      <path
         d="m 96.023,120.543 h -5.605 c -0.617,0 -1.117,-0.5 -1.117,-1.113 0,-0.618 0.5,-1.118 1.117,-1.118 h 5.605 c 0.614,0 1.114,0.5 1.114,1.118 0,0.613 -0.5,1.113 -1.114,1.113"
         style="fill:#000000;fill-opacity:1;fill-rule:nonzero;stroke:none"
         id="path238" />
      <path
         d="m 119.852,119.141 h -8.411 c -0.617,0 -1.113,-0.5 -1.113,-1.114 0,-0.617 0.496,-1.117 1.113,-1.117 h 8.411 c 0.617,0 1.117,0.5 1.117,1.117 0,0.614 -0.5,1.114 -1.117,1.114"
         style="fill:#000000;fill-opacity:1;fill-rule:nonzero;stroke:none"
         id="path240" />
      <path
         d="m 105.836,119.141 h -9.813 c -0.617,0 -1.117,-0.5 -1.117,-1.114 0,-0.617 0.5,-1.117 1.117,-1.117 h 9.813 c 0.613,0 1.113,0.5 1.113,1.117 0,0.614 -0.5,1.114 -1.113,1.114"
         style="fill:#000000;fill-opacity:1;fill-rule:nonzero;stroke:none"
         id="path242" />
      <path
         d="m 90.414,119.141 h -5.605 c -0.618,0 -1.118,-0.5 -1.118,-1.114 0,-0.617 0.5,-1.117 1.118,-1.117 h 5.605 c 0.617,0 1.117,0.5 1.117,1.117 0,0.614 -0.5,1.114 -1.117,1.114"
         style="fill:#000000;fill-opacity:1;fill-rule:nonzero;stroke:none"
         id="path244" />
      <path
         d="M 128.262,124.746 H 84.805 c -0.617,0 -1.117,-0.496 -1.117,-1.113 0,-0.617 0.5,-1.117 1.117,-1.117 h 43.457 c 0.617,0 1.117,0.5 1.117,1.117 0,0.617 -0.5,1.113 -1.117,1.113"
         style="fill:#000000;fill-opacity:1;fill-rule:nonzero;stroke:none"
         id="path246" />
      <path
         d="M 132.469,128.953 H 84.805 c -0.617,0 -1.117,-0.5 -1.117,-1.113 0,-0.617 0.5,-1.117 1.117,-1.117 h 47.664 c 0.613,0 1.113,0.5 1.113,1.117 0,0.613 -0.5,1.113 -1.113,1.113"
         style="fill:#000000;fill-opacity:1;fill-rule:nonzero;stroke:none"
         id="path248" />
      <path
         d="m 128.262,56.719 c -0.614,0 -1.114,-0.5 -1.114,-1.117 0,-0.497 -0.625,-3.067 -12.902,-5.02 -7.719,-1.223 -18.176,-1.898 -29.441,-1.898 -0.617,0 -1.117,-0.5 -1.117,-1.114 0,-0.617 0.5,-1.117 1.117,-1.117 11.379,0 21.961,0.684 29.789,1.926 9.949,1.578 14.785,3.941 14.785,7.223 0,0.617 -0.5,1.117 -1.117,1.117"
         style="fill:#000000;fill-opacity:1;fill-rule:nonzero;stroke:none"
         id="path250" />
      <path
         d="m 128.262,62.508 c -0.614,0 -1.114,-0.496 -1.114,-1.113 0,-0.497 -0.625,-3.071 -12.902,-5.02 -7.719,-1.223 -18.176,-1.898 -29.441,-1.898 -0.617,0 -1.117,-0.5 -1.117,-1.118 0,-0.617 0.5,-1.113 1.117,-1.113 11.379,0 21.961,0.684 29.789,1.926 9.949,1.578 14.785,3.941 14.785,7.223 0,0.617 -0.5,1.113 -1.117,1.113"
         style="fill:#000000;fill-opacity:1;fill-rule:nonzero;stroke:none"
         id="path252" />
      <path
         d="m 128.262,56.344 c -0.614,0 -1.114,-0.5 -1.114,-1.117 v -5.418 c 0,-0.497 -0.625,-3.067 -12.902,-5.016 -7.719,-1.227 -18.176,-1.902 -29.441,-1.902 -0.617,0 -1.117,-0.5 -1.117,-1.114 0,-0.617 0.5,-1.117 1.117,-1.117 11.379,0 21.961,0.684 29.789,1.926 9.949,1.582 14.785,3.945 14.785,7.223 v 5.418 c 0,0.617 -0.5,1.117 -1.117,1.117"
         style="fill:#000000;fill-opacity:1;fill-rule:nonzero;stroke:none"
         id="path254" />
      <path
         d="m 128.262,96.715 c -0.516,0 -0.95,-0.352 -1.078,-0.828 -1.395,-1.043 -11.727,-2.723 -42.375,-2.723 -0.618,0 -1.118,-0.5 -1.118,-1.117 0,-0.617 0.5,-1.117 1.118,-1.117 12.523,0 23.156,0.297 30.746,0.851 4.105,0.301 7.3,0.68 9.492,1.125 2.25,0.457 4.332,1.098 4.332,2.692 0,0.617 -0.5,1.117 -1.117,1.117"
         style="fill:#000000;fill-opacity:1;fill-rule:nonzero;stroke:none"
         id="path256" />
      <path
         d="m 128.262,101.773 c -0.516,0 -0.95,-0.351 -1.078,-0.828 -1.395,-1.043 -11.727,-2.726 -42.375,-2.726 -0.618,0 -1.118,-0.5 -1.118,-1.114 0,-0.617 0.5,-1.117 1.118,-1.117 12.523,0 23.156,0.297 30.746,0.852 4.105,0.301 7.3,0.68 9.492,1.125 2.25,0.457 4.332,1.097 4.332,2.691 0,0.617 -0.5,1.117 -1.117,1.117"
         style="fill:#000000;fill-opacity:1;fill-rule:nonzero;stroke:none"
         id="path258" />
      <path
         d="M 89.016,75.57 H 89 c -1.383,-0.015 -2.797,-0.023 -4.191,-0.023 -0.618,0 -1.118,-0.5 -1.118,-1.117 0,-0.618 0.5,-1.114 1.118,-1.114 1.402,0 2.824,0.008 4.218,0.024 0.618,0.004 1.11,0.508 1.102,1.125 -0.012,0.613 -0.504,1.105 -1.113,1.105"
         style="fill:#000000;fill-opacity:1;fill-rule:nonzero;stroke:none"
         id="path260" />
      <path
         d="m 104.434,76.074 c -0.02,0 -0.043,0 -0.063,-0.004 -2.246,-0.125 -4.594,-0.23 -6.984,-0.312 -0.617,-0.024 -1.098,-0.539 -1.078,-1.156 0.019,-0.614 0.539,-1.094 1.152,-1.075 2.406,0.082 4.773,0.188 7.035,0.317 0.617,0.035 1.086,0.562 1.051,1.176 -0.035,0.593 -0.524,1.054 -1.113,1.054"
         style="fill:#000000;fill-opacity:1;fill-rule:nonzero;stroke:none"
         id="path262" />
      <path
         d="m 119.852,77.508 c -0.051,0 -0.106,-0.004 -0.161,-0.012 -2.023,-0.297 -4.359,-0.57 -6.949,-0.808 -0.617,-0.059 -1.066,-0.602 -1.008,-1.215 0.055,-0.614 0.598,-1.067 1.211,-1.008 2.633,0.242 5.012,0.523 7.071,0.824 0.609,0.09 1.031,0.66 0.941,1.27 -0.082,0.554 -0.559,0.949 -1.105,0.949"
         style="fill:#000000;fill-opacity:1;fill-rule:nonzero;stroke:none"
         id="path264" />
      <path
         d="M 89.016,80.629 H 89 c -1.383,-0.016 -2.793,-0.024 -4.191,-0.024 -0.618,0 -1.118,-0.5 -1.118,-1.117 0,-0.617 0.5,-1.117 1.118,-1.117 1.406,0 2.828,0.012 4.218,0.027 0.618,0.004 1.11,0.508 1.102,1.125 -0.012,0.614 -0.504,1.106 -1.113,1.106"
         style="fill:#000000;fill-opacity:1;fill-rule:nonzero;stroke:none"
         id="path266" />
      <path
         d="m 104.434,81.129 c -0.02,0 -0.043,0 -0.063,0 C 102.125,81 99.773,80.898 97.387,80.816 96.77,80.793 96.289,80.277 96.309,79.66 c 0.019,-0.613 0.539,-1.094 1.152,-1.074 2.406,0.082 4.773,0.187 7.035,0.316 0.617,0.036 1.086,0.559 1.051,1.176 -0.035,0.594 -0.524,1.051 -1.113,1.051"
         style="fill:#000000;fill-opacity:1;fill-rule:nonzero;stroke:none"
         id="path268" />
      <path
         d="m 119.852,82.566 c -0.051,0 -0.106,-0.004 -0.161,-0.011 -2.019,-0.297 -4.355,-0.571 -6.949,-0.809 -0.617,-0.058 -1.066,-0.601 -1.008,-1.215 0.055,-0.613 0.598,-1.066 1.211,-1.008 2.637,0.243 5.012,0.524 7.071,0.825 0.609,0.09 1.031,0.656 0.941,1.265 -0.082,0.555 -0.559,0.953 -1.105,0.953"
         style="fill:#000000;fill-opacity:1;fill-rule:nonzero;stroke:none"
         id="path270" />
      <path
         d="m 195.219,40.543 c 0,-8.359 6.676,-14.406 15.711,-14.406 3.105,0 5.922,0.629 8.273,1.761 V 31.43 C 217.02,30 213.91,29.16 210.34,29.16 c -6.848,0 -11.637,4.535 -11.637,10.836 0,6.809 5.168,11.68 12.266,11.68 3.277,0 6.093,-0.965 8.234,-2.352 v 3.11 c -2.476,1.511 -5.418,2.265 -8.695,2.265 -9.285,0 -15.289,-5.879 -15.289,-14.156"
         style="fill:#000000;fill-opacity:1;fill-rule:nonzero;stroke:none"
         id="path272" />
      <path
         d="m 248.434,40.879 c 0,-6.891 -4.786,-11.887 -11.426,-11.887 -6.215,0 -10.754,4.621 -10.754,10.965 0,6.848 4.832,11.887 11.426,11.887 6.261,0 10.754,-4.621 10.754,-10.965 M 222.77,40.543 c 0,-8.359 6.214,-14.406 14.699,-14.406 8.445,0 14.496,5.965 14.496,14.156 0,8.359 -6.219,14.406 -14.746,14.406 -8.403,0 -14.449,-5.965 -14.449,-14.156"
         style="fill:#000000;fill-opacity:1;fill-rule:nonzero;stroke:none"
         id="path274" />
      <path
         d="m 288.59,54.281 -5.211,-21.133 -9.324,21.133 h -1.684 l -9.324,-20.879 -5.207,20.879 h -3.488 l 7.476,-27.726 h 1.684 l 9.871,21.675 9.742,-21.675 h 1.684 l 7.476,27.726 z"
         style="fill:#000000;fill-opacity:1;fill-rule:nonzero;stroke:none"
         id="path276" />
      <path
         d="m 312.945,51.254 v 3.027 H 297.023 V 26.555 h 14.661 v 3.023 h -11.301 v 9.328 h 11.301 v 3.024 h -11.301 v 9.324 z"
         style="fill:#000000;fill-opacity:1;fill-rule:nonzero;stroke:none"
         id="path278" />
      <path
         d="m 319.199,26.555 h 1.684 l 19.32,21.133 V 26.555 h 3.359 v 27.726 h -1.675 L 322.559,33.152 v 21.129 h -3.36 z"
         style="fill:#000000;fill-opacity:1;fill-rule:nonzero;stroke:none"
         id="path280" />
      <path
         d="m 350.699,26.555 h 3.359 v 27.727 h -3.359 z"
         style="fill:#000000;fill-opacity:1;fill-rule:nonzero;stroke:none"
         id="path282" />
      <path
         d="m 361.453,41.805 -0.969,-15.25 h 3.532 l 0.922,15.25 c 0.421,6.09 3.406,9.535 8.613,9.535 5.082,0 8.023,-3.445 8.402,-9.535 l 0.965,-15.25 h 3.359 l -0.922,15.25 c -0.503,8.191 -4.707,12.894 -12.14,12.894 -7.227,0 -11.301,-4.703 -11.762,-12.894"
         style="fill:#000000;fill-opacity:1;fill-rule:nonzero;stroke:none"
         id="path284" />
      <path
         d="m 390.934,49.324 c 2.312,1.637 4.75,2.352 7.226,2.352 3.363,0 5.293,-1.68 5.293,-3.949 0,-5.754 -12.098,-6.762 -12.098,-14.45 0,-4.199 3.782,-7.14 8.989,-7.14 2.101,0 4.074,0.375 5.797,1.09 v 3.613 c -1.637,-1.051 -3.903,-1.68 -6.047,-1.68 -3.317,0 -5.25,1.68 -5.25,3.652 0,5.59 12.14,6.809 12.14,14.79 0,4.242 -3.613,7.097 -9.285,7.097 -2.648,0 -5.082,-0.672 -6.804,-1.594 z"
         style="fill:#000000;fill-opacity:1;fill-rule:nonzero;stroke:none"
         id="path286" />
      <path
         d="m 197.234,84.805 -0.968,-15.25 h 3.531 l 0.922,15.25 c 0.422,6.09 3.402,9.535 8.613,9.535 5.082,0 8.023,-3.445 8.398,-9.535 l 0.969,-15.25 h 3.36 l -0.922,15.25 c -0.508,8.191 -4.707,12.894 -12.141,12.894 -7.226,0 -11.301,-4.703 -11.762,-12.894"
         style="fill:#000000;fill-opacity:1;fill-rule:nonzero;stroke:none"
         id="path288" />
      <path
         d="m 228.48,69.555 h 1.68 l 19.324,21.133 V 69.555 h 3.36 v 27.726 h -1.68 L 231.84,76.152 v 21.129 h -3.36 z"
         style="fill:#000000;fill-opacity:1;fill-rule:nonzero;stroke:none"
         id="path290" />
      <path
         d="m 259.98,69.555 h 3.359 v 27.727 h -3.359 z"
         style="fill:#000000;fill-opacity:1;fill-rule:nonzero;stroke:none"
         id="path292" />
      <path
         d="m 295.055,69.555 -13.274,27.726 h -1.679 L 266.91,69.555 h 3.867 l 10.25,22.097 10.332,-22.097 z"
         style="fill:#000000;fill-opacity:1;fill-rule:nonzero;stroke:none"
         id="path294" />
      <path
         d="m 314.543,94.254 v 3.027 H 298.621 V 69.555 h 14.66 v 3.023 H 301.98 v 9.328 h 11.301 V 84.93 H 301.98 v 9.324 z"
         style="fill:#000000;fill-opacity:1;fill-rule:nonzero;stroke:none"
         id="path296" />
      <path
         d="m 324.156,82.535 h 5.293 c 3.867,0 6.305,-2.015 6.305,-5.125 0,-3.066 -2.438,-4.996 -6.305,-4.996 h -5.293 z m 17.645,12.899 -2.016,2.519 -15.629,-12.562 v 11.89 h -3.359 V 69.555 h 9.199 c 5.672,0 9.285,2.984 9.285,7.687 0,4.957 -3.906,8.11 -10.043,8.149 z"
         style="fill:#000000;fill-opacity:1;fill-rule:nonzero;stroke:none"
         id="path298" />
      <path
         d="m 344.484,92.324 c 2.313,1.637 4.746,2.352 7.227,2.352 3.359,0 5.293,-1.68 5.293,-3.949 0,-5.754 -12.098,-6.762 -12.098,-14.45 0,-4.199 3.778,-7.14 8.989,-7.14 2.101,0 4.074,0.375 5.796,1.09 v 3.613 c -1.64,-1.051 -3.906,-1.68 -6.05,-1.68 -3.317,0 -5.25,1.68 -5.25,3.652 0,5.59 12.14,6.809 12.14,14.79 0,4.242 -3.613,7.097 -9.285,7.097 -2.644,0 -5.082,-0.672 -6.805,-1.594 z"
         style="fill:#000000;fill-opacity:1;fill-rule:nonzero;stroke:none"
         id="path300" />
      <path
         d="m 365.902,69.555 h 3.363 v 27.727 h -3.363 z"
         style="fill:#000000;fill-opacity:1;fill-rule:nonzero;stroke:none"
         id="path302" />
      <path
         d="m 392.914,72.582 h -7.98 V 97.281 H 381.57 V 72.582 h -8.023 v -3.027 h 19.367 z"
         style="fill:#000000;fill-opacity:1;fill-rule:nonzero;stroke:none"
         id="path304" />
      <path
         d="m 407.82,86.191 v 11.09 h -3.359 V 86.234 l -9.957,-16.679 h 3.867 l 7.852,13.148 7.816,-13.148 h 3.695 z"
         style="fill:#000000;fill-opacity:1;fill-rule:nonzero;stroke:none"
         id="path306" />
      <path
         d="m 211.094,132.719 c 0,-3.024 -2.477,-4.957 -6.258,-4.957 h -5.211 v 9.66 h 5.84 c 3.363,0 5.629,-1.848 5.629,-4.703 M 199.625,115.41 v 9.664 h 4.246 c 3.317,0 5.418,-1.89 5.418,-4.789 0,-2.984 -2.269,-4.875 -5.84,-4.875 z m 15,17.223 c 0,4.664 -3.824,7.648 -9.707,7.648 h -8.652 v -27.726 h 7.394 c 5.586,0 9.156,2.773 9.156,7.101 0,2.895 -1.55,5.125 -4.199,6.172 3.738,0.926 6.008,3.363 6.008,6.805"
         style="fill:#000000;fill-opacity:1;fill-rule:nonzero;stroke:none"
         id="path308" />
      <path
         d="m 222.727,125.535 h 5.293 c 3.863,0 6.3,-2.015 6.3,-5.125 0,-3.066 -2.437,-4.996 -6.3,-4.996 h -5.293 z m 17.644,12.899 -2.016,2.519 -15.628,-12.562 v 11.89 h -3.36 v -27.726 h 9.199 c 5.672,0 9.282,2.984 9.282,7.687 0,4.957 -3.903,8.11 -10.039,8.149 z"
         style="fill:#000000;fill-opacity:1;fill-rule:nonzero;stroke:none"
         id="path310" />
      <path
         d="m 261.535,128.52 -5.418,-10.922 -5.461,10.922 z m 1.516,3.023 h -13.906 l -4.368,8.738 h -3.531 l 14.117,-27.726 h 1.68 l 14.027,27.726 h -3.695 z"
         style="fill:#000000;fill-opacity:1;fill-rule:nonzero;stroke:none"
         id="path312" />
      <path
         d="m 288.5,115.582 h -7.98 v 24.699 h -3.36 v -24.699 h -8.023 v -3.027 H 288.5 Z"
         style="fill:#000000;fill-opacity:1;fill-rule:nonzero;stroke:none"
         id="path314" />
      <path
         d="m 292.781,112.555 h 3.359 v 27.727 h -3.359 z"
         style="fill:#000000;fill-opacity:1;fill-rule:nonzero;stroke:none"
         id="path316" />
      <path
         d="m 301.52,135.324 c 2.308,1.637 4.746,2.352 7.222,2.352 3.363,0 5.293,-1.68 5.293,-3.949 0,-5.754 -12.097,-6.762 -12.097,-14.45 0,-4.199 3.781,-7.14 8.988,-7.14 2.101,0 4.074,0.375 5.797,1.09 v 3.613 c -1.637,-1.051 -3.903,-1.68 -6.047,-1.68 -3.317,0 -5.25,1.68 -5.25,3.652 0,5.59 12.14,6.809 12.14,14.79 0,4.242 -3.613,7.097 -9.285,7.097 -2.648,0 -5.082,-0.672 -6.804,-1.594 z"
         style="fill:#000000;fill-opacity:1;fill-rule:nonzero;stroke:none"
         id="path318" />
      <path
         d="m 337.344,137.254 v 3.027 h -14.406 v -27.726 h 3.359 v 24.699 z"
         style="fill:#000000;fill-opacity:1;fill-rule:nonzero;stroke:none"
         id="path320" />
      <path
         d="m 358.516,128.52 -5.422,-10.922 -5.461,10.922 z m 1.511,3.023 h -13.906 l -4.367,8.738 h -3.527 l 14.113,-27.726 h 1.68 l 14.031,27.726 h -3.699 z"
         style="fill:#000000;fill-opacity:1;fill-rule:nonzero;stroke:none"
         id="path322" />
      <path
         d="m 393.711,112.555 -13.273,27.726 h -1.68 l -13.192,-27.726 h 3.868 l 10.25,22.097 10.332,-22.097 z"
         style="fill:#000000;fill-opacity:1;fill-rule:nonzero;stroke:none"
         id="path324" />
      <path
         d="m 411.52,128.52 -5.422,-10.922 -5.461,10.922 z m 1.511,3.023 h -13.906 l -4.367,8.738 h -3.528 l 14.114,-27.726 h 1.679 l 14.032,27.726 h -3.696 z"
         style="fill:#000000;fill-opacity:1;fill-rule:nonzero;stroke:none"
         id="path326" />
    </g>
  </g>
</svg>
